<!DOCTYPE svg PUBLIC "-//W3C//DTD SVG 20010904//EN" "http://www.w3.org/TR/2001/REC-SVG-20010904/DTD/svg10.dtd">
<svg version="1.0" xmlns="http://www.w3.org/2000/svg" width="400px" height="400px" viewBox="0 0 4000 4000" preserveAspectRatio="xMidYMid meet">
<g id="layer101" fill="#dc3847" stroke="none">
 <path d="M0 2000 l0 -2000 2000 0 2000 0 0 2000 0 2000 -2000 0 -2000 0 0 -2000z"/>
 </g>
<g id="layer102" fill="#ffffff" stroke="none">
 <path d="M0 2000 l0 -2000 2000 0 2000 0 0 2000 0 2000 -2000 0 -2000 0 0 -2000z m2730 78 c33 -17 51 -35 68 -68 l22 -44 0 -671 0 -671 -22 -44 c-17 -33 -35 -51 -68 -68 l-44 -22 -671 0 -671 0 -44 23 c-33 16 -51 34 -67 67 l-23 44 0 671 0 671 23 44 c16 33 34 51 67 68 l44 22 671 0 671 0 44 -22z"/>
 <path d="M1410 1576 c0 -8 7 -16 15 -20 12 -4 15 -24 15 -91 0 -84 0 -85 -25 -85 -16 0 -25 6 -25 15 0 8 -9 15 -20 15 -16 0 -20 -7 -20 -35 l0 -36 113 3 112 3 3 28 c4 33 -24 49 -43 24 -7 -10 -20 -17 -29 -17 -14 0 -16 13 -16 90 0 53 4 90 10 90 6 0 10 7 10 15 0 11 -12 15 -50 15 -36 0 -50 -4 -50 -14z"/>
 <path d="M1590 1575 c0 -8 7 -15 15 -15 12 0 15 -17 15 -90 0 -71 -3 -92 -15 -96 -8 -4 -15 -12 -15 -20 0 -23 161 -19 191 5 29 23 31 81 4 111 -18 19 -18 22 -2 55 9 19 21 35 27 35 5 0 10 7 10 15 0 10 -10 15 -33 15 -31 0 -35 -4 -47 -40 -15 -46 -33 -65 -55 -56 -20 7 -20 66 0 66 8 0 15 7 15 15 0 12 -13 15 -55 15 -42 0 -55 -3 -55 -15z m159 -143 c15 -28 -5 -52 -44 -52 -33 0 -35 2 -35 35 0 33 2 35 35 35 23 0 38 -6 44 -18z"/>
 <path d="M1840 1575 c0 -8 5 -15 10 -15 6 0 10 -38 10 -95 0 -57 -4 -95 -10 -95 -5 0 -10 -7 -10 -15 0 -11 12 -15 50 -15 38 0 50 4 50 15 0 8 -4 15 -10 15 -6 0 -10 38 -10 95 0 57 4 95 10 95 6 0 10 7 10 15 0 11 -12 15 -50 15 -38 0 -50 -4 -50 -15z"/>
 <path d="M1960 1575 c0 -8 7 -15 15 -15 12 0 15 -17 15 -90 0 -71 -3 -92 -15 -96 -8 -4 -15 -12 -15 -20 0 -10 15 -14 55 -14 40 0 55 4 55 14 0 8 -7 16 -15 20 -12 4 -15 24 -15 91 l0 85 35 0 c24 0 35 -5 35 -15 0 -8 9 -15 20 -15 16 0 20 7 20 35 l0 35 -95 0 c-78 0 -95 -3 -95 -15z"/>
 <path d="M2170 1575 c0 -8 7 -15 15 -15 12 0 15 -17 15 -90 0 -71 -3 -92 -15 -96 -8 -4 -15 -12 -15 -20 0 -10 15 -14 55 -14 40 0 55 4 55 14 0 8 -7 16 -15 20 -9 3 -15 19 -15 41 l0 35 50 0 50 0 0 -40 c0 -22 -4 -40 -10 -40 -5 0 -10 -7 -10 -15 0 -11 12 -15 50 -15 36 0 50 4 50 14 0 8 -7 17 -15 20 -13 5 -15 22 -13 93 3 81 5 88 24 91 22 3 37 -27 87 -173 12 -34 18 -40 43 -40 27 0 30 5 67 105 21 58 42 107 48 108 5 2 9 10 9 18 0 10 -13 14 -45 14 -32 0 -45 -4 -45 -14 0 -8 5 -16 12 -18 6 -2 8 -10 4 -16 -11 -18 -93 -15 -100 3 -3 8 -1 15 4 15 6 0 10 7 10 15 0 12 -17 15 -95 15 -78 0 -95 -3 -95 -15 0 -8 5 -15 10 -15 6 0 10 -16 10 -35 l0 -35 -50 0 -50 0 0 35 c0 24 5 35 15 35 8 0 15 7 15 15 0 12 -13 15 -55 15 -42 0 -55 -3 -55 -15z m410 -99 c0 -7 -5 -28 -12 -47 l-11 -33 -13 34 c-18 51 -17 60 11 60 14 0 25 -6 25 -14z"/>
 <path d="M1514 1248 c-4 -6 0 -16 9 -23 24 -17 25 -183 2 -191 -32 -13 -16 -34 25 -34 40 0 42 1 93 82 l52 82 3 -59 c2 -45 -1 -62 -12 -71 -30 -21 -17 -34 33 -34 53 0 73 14 47 33 -12 9 -16 35 -18 117 -3 98 -4 105 -24 108 -16 2 -32 -15 -75 -80 l-54 -82 -3 58 c-2 46 1 61 14 70 26 20 7 36 -41 36 -24 0 -47 -5 -51 -12z"/>
 <path d="M1864 1250 c-58 -23 -86 -109 -58 -179 31 -78 120 -97 180 -37 30 30 34 40 34 84 0 68 -13 98 -52 122 -35 21 -69 24 -104 10z m86 -50 c25 -25 27 -105 4 -138 -18 -26 -60 -29 -86 -5 -26 24 -25 116 2 143 11 11 29 20 40 20 11 0 29 -9 40 -20z"/>
 <path d="M2143 1248 c-6 -7 -28 -59 -48 -115 -21 -57 -42 -103 -47 -103 -4 0 -8 -7 -8 -15 0 -11 12 -15 50 -15 36 0 50 4 50 14 0 8 -5 16 -11 18 -12 4 28 148 41 148 12 0 50 -134 40 -144 -23 -23 -10 -36 35 -36 32 0 45 4 45 14 0 8 -4 16 -10 18 -5 2 -26 53 -47 113 -31 89 -42 111 -59 113 -11 2 -25 -3 -31 -10z"/>
 <path d="M2270 1240 c0 -11 4 -20 8 -20 4 0 26 -49 47 -110 37 -103 42 -110 67 -110 28 0 26 -4 85 160 9 25 23 53 31 63 21 24 4 39 -39 35 -32 -3 -34 -5 -31 -35 l3 -33 -51 0 -51 0 7 35 6 35 -41 0 c-34 0 -41 -3 -41 -20z m150 -99 c0 -16 -22 -71 -29 -71 -8 0 -29 68 -23 75 9 8 52 6 52 -4z"/>
 </g>

</svg>