<!DOCTYPE svg PUBLIC "-//W3C//DTD SVG 20010904//EN" "http://www.w3.org/TR/2001/REC-SVG-20010904/DTD/svg10.dtd">
<svg version="1.0" xmlns="http://www.w3.org/2000/svg" width="1200px" height="800px" viewBox="0 0 12000 8000" preserveAspectRatio="xMidYMid meet">
<g id="layer101" fill="#dc3646" stroke="none">
 <path d="M0 4000 l0 -4000 6000 0 6000 0 0 4000 0 4000 -6000 0 -6000 0 0 -4000z"/>
 </g>
<g id="layer102" fill="#ffffff" stroke="none">
 <path d="M0 4000 l0 -4000 6000 0 6000 0 0 4000 0 4000 -6000 0 -6000 0 0 -4000z m7542 162 c79 -32 149 -98 190 -179 l33 -66 0 -1496 0 -1496 -29 -63 c-41 -89 -125 -165 -212 -192 -65 -20 -86 -20 -1518 -20 -1575 0 -1517 -2 -1603 54 -58 37 -109 95 -137 157 l-26 55 0 1496 c-1 1492 -1 1496 20 1551 41 109 154 199 272 217 29 4 706 7 1503 6 l1450 -1 57 -23z"/>
 <path d="M4670 3036 c0 -30 3 -35 28 -38 l27 -3 3 -197 2 -198 -50 0 c-52 0 -57 7 -51 58 1 8 -13 12 -44 12 l-46 0 3 -77 c2 -43 6 -77 11 -75 4 1 115 2 247 2 l241 0 -3 73 -3 72 -42 3 c-39 3 -43 1 -43 -20 0 -40 -14 -50 -61 -46 l-44 3 0 195 0 195 30 5 c17 3 29 9 28 13 -2 4 -3 18 -3 32 l0 25 -115 0 -115 0 0 -34z"/>
 <path d="M5072 3038 c2 -28 8 -34 31 -36 l27 -3 0 -205 c0 -190 -1 -204 -18 -204 -10 0 -23 -5 -30 -12 -16 -16 -15 -58 1 -58 131 -5 335 3 361 15 59 26 86 56 92 107 10 73 -2 114 -46 156 l-38 38 25 54 c39 89 50 105 72 108 17 3 21 11 21 38 l0 34 -69 0 -69 0 -19 -47 c-11 -27 -29 -70 -38 -98 -25 -69 -32 -75 -81 -75 l-44 0 0 75 c0 72 1 75 23 75 31 0 34 4 29 40 l-4 30 -115 0 -114 0 3 -32z m341 -299 c17 -21 22 -64 11 -94 -10 -26 -59 -45 -119 -45 l-55 0 0 78 c0 43 3 82 7 86 5 4 37 5 73 2 50 -4 69 -11 83 -27z"/>
 <path d="M5610 3036 c0 -30 3 -35 28 -38 l27 -3 3 -202 2 -202 -27 -3 c-23 -2 -29 -8 -31 -35 l-3 -33 105 0 c58 0 109 0 114 0 4 0 7 15 7 33 0 26 -4 33 -22 35 -23 3 -23 3 -23 207 0 204 0 204 23 207 17 2 23 11 25 36 l3 32 -115 0 -116 0 0 -34z"/>
 <path d="M5890 3036 c0 -29 4 -34 30 -40 l30 -6 -2 -197 -3 -197 -25 -6 c-19 -4 -26 -13 -28 -38 l-3 -32 116 0 116 0 -3 32 c-2 25 -9 34 -28 38 l-25 6 -3 197 -2 197 79 0 80 0 3 -42 c3 -46 17 -55 62 -44 22 5 23 11 25 86 l2 80 -210 0 -211 0 0 -34z"/>
 <path d="M6340 3051 c0 -32 11 -51 29 -51 37 0 41 -19 41 -201 0 -98 -3 -184 -6 -193 -3 -9 -16 -16 -29 -16 -23 0 -35 -17 -35 -51 0 -18 8 -19 120 -19 112 0 120 1 120 19 0 34 -12 51 -35 51 -22 0 -24 4 -27 80 l-3 80 113 0 112 0 0 -79 c0 -79 0 -80 -27 -83 -24 -3 -28 -8 -31 -38 l-3 -35 113 2 113 2 0 33 c0 26 -4 34 -22 36 -22 3 -22 6 -25 204 -2 127 1 202 7 204 25 8 73 11 82 5 9 -5 39 -83 85 -216 5 -16 14 -39 19 -50 5 -11 22 -57 39 -103 44 -123 39 -118 103 -114 l56 4 26 71 c26 72 40 111 88 242 14 39 33 91 42 117 10 28 25 48 36 51 14 4 19 14 19 36 l0 31 -95 0 -95 0 0 -30 c0 -21 6 -33 19 -38 17 -6 17 -11 7 -42 l-11 -35 -96 -3 -97 -3 -11 32 c-14 42 -14 49 4 49 10 0 15 11 15 35 l0 35 -211 0 -210 0 3 -32 c2 -28 8 -34 31 -36 27 -3 27 -4 27 -83 l0 -79 -110 0 -111 0 3 77 c3 69 5 78 23 82 24 4 35 19 35 49 0 22 -2 22 -120 22 -112 0 -120 -1 -120 -19z m910 -224 c0 -11 -37 -128 -56 -177 -5 -12 -42 79 -71 173 -5 15 2 17 61 17 48 0 66 -4 66 -13z"/>
 <path d="M5701 2329 c-89 -27 -150 -92 -174 -187 -11 -43 -11 -69 -2 -135 15 -104 23 -123 77 -173 54 -51 98 -69 169 -68 107 1 204 75 234 178 23 78 20 177 -9 239 -23 50 -77 121 -93 123 -4 0 -21 6 -38 13 -41 17 -123 22 -164 10z m125 -95 c57 -27 79 -75 79 -174 0 -133 -38 -196 -126 -207 -47 -7 -102 25 -123 72 -19 40 -28 173 -15 218 25 91 104 129 185 91z"/>
 <path d="M4900 2296 c0 -29 4 -34 30 -39 l30 -6 0 -200 0 -199 -30 -7 c-26 -6 -30 -11 -30 -41 l0 -34 83 0 c76 0 86 2 107 25 13 14 20 25 16 25 -4 0 8 22 28 49 20 27 36 53 36 58 0 6 9 18 20 28 11 10 17 21 15 25 -2 4 4 15 15 25 11 10 20 22 20 27 0 5 11 24 24 41 13 18 27 42 31 55 3 12 11 22 16 22 6 0 8 -58 7 -147 l-3 -148 -35 -11 c-19 -7 -35 -17 -34 -23 1 -6 2 -20 3 -31 1 -19 8 -20 117 -20 l115 0 -3 38 c-2 24 -8 37 -18 38 -8 1 -21 2 -27 2 -10 2 -13 60 -15 240 l-3 237 -57 3 c-32 2 -58 -1 -58 -5 0 -5 -38 -66 -85 -137 -47 -71 -85 -130 -85 -132 0 -2 -15 -25 -32 -51 l-33 -48 -3 144 c-3 153 -1 161 46 161 19 0 22 5 22 35 l0 35 -115 0 -115 0 0 -34z"/>
 <path d="M6276 2322 c-6 -9 -69 -179 -126 -337 -49 -135 -55 -145 -81 -145 -15 0 -19 -7 -19 -35 l0 -36 108 3 107 3 3 32 c3 25 -1 32 -18 35 -11 2 -21 7 -22 11 -1 13 106 337 112 337 6 0 111 -319 110 -337 0 -7 -11 -13 -25 -13 -22 0 -25 -4 -25 -35 l0 -35 105 0 105 0 0 35 c0 30 -3 35 -24 35 -20 0 -26 9 -46 73 -13 39 -26 77 -30 82 -3 6 -12 30 -19 55 -8 25 -19 59 -27 75 -7 17 -16 43 -20 59 -4 16 -13 41 -20 55 -8 14 -17 41 -20 59 -6 32 -7 32 -65 32 -32 0 -60 -3 -63 -8z"/>
 <path d="M6557 2323 c-16 -16 -6 -54 16 -62 17 -7 30 -27 45 -68 12 -32 51 -140 88 -240 l68 -183 53 0 c63 0 54 -14 139 220 30 85 59 164 64 175 5 11 14 37 20 57 7 24 18 38 31 40 11 2 20 6 19 11 0 4 0 18 0 32 0 25 0 25 -95 25 l-95 0 0 -34 c0 -25 5 -35 19 -39 18 -4 19 -8 9 -41 l-12 -37 -100 3 -101 3 -6 38 c-4 27 -2 37 8 37 8 0 13 12 13 35 l0 35 -88 0 c-49 0 -92 -3 -95 -7z m333 -238 c0 -9 -7 -31 -15 -51 -8 -19 -14 -38 -15 -42 -1 -16 -23 -78 -31 -86 -4 -5 -11 4 -14 20 -3 16 -10 37 -16 46 -5 10 -9 27 -9 37 0 11 -4 23 -10 26 -5 3 -10 19 -10 36 0 29 0 29 60 29 47 0 60 -3 60 -15z"/>
 </g>

</svg>