<!DOCTYPE svg PUBLIC "-//W3C//DTD SVG 20010904//EN" "http://www.w3.org/TR/2001/REC-SVG-20010904/DTD/svg10.dtd">
<svg version="1.0" xmlns="http://www.w3.org/2000/svg" width="1200px" height="800px" viewBox="0 0 12000 8000" preserveAspectRatio="xMidYMid meet">
<g id="layer101" fill="#2e2d40" stroke="none">
<path d="M0 4000 l0 -4000 6000 0 6000 0 0 4000 0 4000 -6000 0 -6000 0 0 -4000z"/>
</g>
<g id="layer102" fill="#4f3748" stroke="none">
<path d="M0 4000 l0 -4000 6000 0 6000 0 0 4000 0 4000 -6000 0 -6000 0 0 -4000z m6429 -145 c3 -3 -150 -5 -339 -5 -327 1 -344 1 -351 -17 -14 -37 -40 -48 -122 -50 l-79 -1 4 36 3 37 -242 0 -243 0 0 -33 c0 -35 -37 -82 -65 -82 -8 0 -15 -4 -15 -8 0 -10 -44 -32 -63 -32 -7 0 -20 13 -29 28 l-17 28 75 44 c41 25 74 48 74 52 0 4 -15 8 -32 10 -18 2 297 2 701 0 404 -1 737 -5 740 -7z m-1482 -2 c-4 -3 -10 -3 -14 0 -3 4 0 7 7 7 7 0 10 -3 7 -7z m708 -155 c12 -30 33 -409 34 -593 1 -227 10 -191 -109 -425 -39 -77 -65 -116 -77 -117 -10 -2 -63 21 -118 50 -95 49 -101 54 -110 92 -5 22 -13 45 -16 50 -10 16 -21 83 -29 180 -5 50 -15 122 -24 160 -9 39 -19 86 -22 105 -3 19 -37 88 -75 154 -38 65 -69 122 -69 126 0 5 -3 10 -8 12 -4 2 -23 30 -43 64 -43 72 -39 84 36 109 40 14 50 14 61 3 22 -22 173 -267 224 -363 26 -49 69 -138 96 -197 26 -60 51 -108 54 -108 11 0 20 39 20 90 0 25 7 101 15 170 8 69 22 194 30 279 9 85 18 158 21 162 8 14 104 11 109 -3z m-398 -1569 c8 -8 13 -8 17 0 9 14 96 14 132 1 27 -11 27 -11 21 -93 -2 -45 -6 -89 -8 -97 -3 -12 5 -14 38 -12 38 3 42 1 38 -17 -6 -33 -15 -42 -59 -62 -28 -13 -64 -19 -118 -19 -68 0 -80 3 -108 26 -17 15 -40 44 -51 65 -24 47 -35 144 -20 182 12 32 41 36 48 7 7 -27 20 -25 27 5 7 26 25 32 43 14z"/>
</g>
<g id="layer103" fill="#db3645" stroke="none">
<path d="M0 4000 l0 -4000 6000 0 6000 0 0 4000 0 4000 -6000 0 -6000 0 0 -4000z m6429 -145 c3 -3 -150 -5 -339 -5 -334 1 -344 1 -351 -18 -13 -36 -46 -49 -124 -51 l-75 -2 0 38 0 38 -240 0 -240 0 0 -28 c0 -43 -15 -63 -74 -96 -66 -38 -77 -38 -98 -3 l-17 28 75 44 c41 25 74 48 74 52 0 4 -15 8 -32 10 -18 2 297 2 701 0 404 -1 737 -5 740 -7z m-1482 -2 c-4 -3 -10 -3 -14 0 -3 4 0 7 7 7 7 0 10 -3 7 -7z m708 -155 c13 -35 33 -419 32 -608 -2 -207 -3 -217 -24 -244 -13 -16 -23 -35 -23 -42 0 -23 -121 -244 -133 -244 -7 0 -58 21 -114 47 l-102 48 -19 60 c-29 89 -33 111 -42 215 -4 52 -15 127 -24 165 -9 39 -19 86 -22 105 -3 19 -37 88 -75 154 -38 65 -69 122 -69 126 0 5 -3 10 -8 12 -4 2 -24 30 -43 64 -43 73 -40 86 32 109 43 15 53 15 64 4 23 -23 174 -268 225 -364 26 -49 69 -138 96 -197 26 -60 51 -108 54 -108 11 0 20 39 20 90 0 25 7 101 15 170 8 69 22 194 30 279 9 85 18 158 21 162 8 14 104 11 109 -3z m-400 -1568 c5 -8 11 -7 21 1 18 15 130 7 147 -10 12 -12 17 -113 7 -161 -5 -23 -1 -25 33 -30 21 -3 37 -9 36 -15 -7 -52 -76 -84 -181 -85 -68 0 -80 3 -108 26 -17 15 -40 44 -51 65 -24 47 -35 144 -20 182 12 32 41 36 48 7 7 -27 20 -25 27 5 6 25 30 34 41 15z"/>
</g>
<g id="layer104" fill="#a06069" stroke="none">
<path d="M0 4000 l0 -4000 6000 0 6000 0 0 4000 0 4000 -6000 0 -6000 0 0 -4000z m6429 -145 c3 -3 -150 -5 -339 -5 -334 1 -344 1 -351 -18 -13 -36 -46 -49 -124 -51 l-75 -2 0 38 0 38 -240 0 -240 0 0 -28 c0 -43 -15 -63 -74 -96 -66 -38 -77 -38 -98 -3 l-17 28 75 44 c41 25 74 48 74 52 0 4 -15 8 -32 10 -18 2 297 2 701 0 404 -1 737 -5 740 -7z m-1482 -2 c-4 -3 -10 -3 -14 0 -3 4 0 7 7 7 7 0 10 -3 7 -7z m708 -155 c13 -35 33 -419 32 -608 -2 -207 -3 -217 -24 -244 -13 -16 -23 -35 -23 -42 0 -22 -121 -244 -133 -244 -5 0 -7 -3 -4 -7 4 -3 -23 -62 -59 -131 -58 -108 -65 -127 -55 -148 8 -18 19 -24 41 -24 26 0 33 7 60 60 17 33 39 74 49 90 16 27 19 29 23 12 7 -25 -31 -134 -57 -165 -58 -68 -161 -82 -236 -32 -87 57 -99 124 -44 253 19 46 42 106 50 135 14 49 14 57 -4 112 -28 89 -32 111 -41 215 -4 52 -15 127 -24 165 -9 39 -19 86 -22 105 -3 19 -37 88 -75 154 -38 65 -69 122 -69 126 0 5 -3 10 -8 12 -4 2 -24 30 -43 64 -43 73 -40 86 32 109 43 15 53 15 64 4 23 -23 174 -268 225 -364 26 -49 69 -138 96 -197 26 -60 51 -108 54 -108 11 0 20 39 20 90 0 25 7 101 15 170 8 69 22 194 30 279 9 85 18 158 21 162 8 14 104 11 109 -3z m189 -882 c37 -48 33 -59 -5 -13 -25 30 -34 35 -45 26 -9 -7 -14 -8 -14 -1 0 9 14 19 31 21 4 1 18 -14 33 -33z m1644 -633 c33 -49 34 -59 2 -20 -28 32 -35 36 -49 25 -14 -12 -14 -11 -2 5 18 23 26 22 49 -10z m-2233 -53 c5 -8 11 -7 21 1 18 15 130 7 147 -10 12 -12 17 -113 7 -161 -5 -23 -1 -25 33 -30 21 -3 37 -9 36 -15 -7 -52 -76 -84 -181 -85 -68 0 -80 3 -108 26 -17 15 -40 44 -51 65 -24 47 -35 144 -20 182 12 32 41 36 48 7 7 -27 20 -25 27 5 6 25 30 34 41 15z m2231 -697 c34 -47 37 -60 6 -24 -21 25 -34 32 -47 27 -15 -5 -16 -4 -5 9 17 21 23 19 46 -12z"/>
</g>
<g id="layer105" fill="#777784" stroke="none">
<path d="M0 4000 l0 -4000 6000 0 6000 0 0 4000 0 4000 -6000 0 -6000 0 0 -4000z m6429 -145 c3 -3 -150 -5 -339 -5 -327 1 -344 1 -351 -17 -13 -35 -42 -50 -96 -52 -20 -1 -22 -5 -16 -33 3 -18 12 -37 19 -43 20 -15 43 -361 41 -623 -2 -213 -1 -222 17 -222 27 0 56 -29 56 -56 0 -14 -13 -35 -30 -51 -16 -14 -30 -30 -30 -35 0 -4 -33 -70 -73 -147 -53 -99 -71 -144 -66 -158 9 -23 -28 -132 -56 -166 -57 -68 -161 -82 -235 -33 -59 39 -230 206 -230 225 0 9 45 69 100 134 55 65 100 126 100 136 0 9 4 21 9 26 6 6 6 27 0 55 -6 25 -14 88 -19 140 -4 52 -15 127 -24 165 -9 39 -19 86 -22 105 -3 19 -37 88 -75 154 -38 65 -69 122 -69 126 0 5 -4 10 -8 12 -12 5 -77 122 -74 132 5 14 -31 76 -43 76 -6 0 -18 13 -27 28 l-17 28 75 44 c41 25 74 48 74 52 0 4 -15 8 -32 10 -18 2 297 2 701 0 404 -1 737 -5 740 -7z m-1482 -2 c-4 -3 -10 -3 -14 0 -3 4 0 7 7 7 7 0 10 -3 7 -7z m897 -1037 c37 -48 33 -59 -5 -13 -25 30 -34 35 -45 26 -9 -7 -14 -8 -14 -1 0 9 14 19 31 21 4 1 18 -14 33 -33z m1644 -633 c33 -49 34 -59 2 -20 -28 32 -35 36 -49 25 -14 -12 -14 -11 -2 5 18 23 26 22 49 -10z m-2231 -54 c8 -8 13 -8 17 0 8 12 86 15 124 5 15 -4 31 -25 48 -61 25 -52 27 -78 9 -125 -6 -14 -2 -18 18 -18 20 0 25 -4 22 -20 -6 -32 -15 -41 -59 -61 -28 -13 -64 -19 -118 -19 -68 0 -80 3 -108 26 -17 15 -40 44 -51 65 -24 47 -35 144 -20 182 12 32 41 36 48 7 7 -27 20 -25 27 5 7 26 25 32 43 14z m2229 -696 c34 -47 37 -60 6 -24 -21 25 -34 32 -47 27 -15 -5 -16 -4 -5 9 17 21 23 19 46 -12z"/>
<path d="M5060 3827 c0 -39 -15 -64 -50 -82 l-30 -16 22 -30 c18 -24 27 -29 49 -24 31 7 28 11 130 -151 97 -154 160 -271 225 -416 26 -60 51 -108 54 -108 11 0 20 39 20 90 0 25 7 101 15 170 8 69 22 195 30 280 9 85 20 159 25 164 13 13 13 76 0 76 -5 0 -10 17 -10 38 l0 37 -240 0 -240 0 0 -28z"/>
</g>
<g id="layer106" fill="#db5561" stroke="none">
<path d="M0 4000 l0 -4000 6000 0 6000 0 0 4000 0 4000 -6000 0 -6000 0 0 -4000z m6429 -145 c3 -3 -150 -5 -339 -5 -334 1 -344 1 -351 -18 -11 -29 -49 -52 -86 -52 -31 0 -32 -1 -26 -32 3 -18 12 -37 19 -43 20 -15 46 -420 42 -653 -3 -184 -2 -192 16 -192 27 0 56 -29 56 -56 0 -14 -13 -35 -30 -51 -16 -14 -30 -30 -30 -35 0 -4 -33 -70 -73 -147 -53 -99 -71 -144 -66 -158 9 -23 -28 -132 -56 -166 -57 -68 -161 -82 -235 -33 -59 39 -230 206 -230 225 0 9 45 69 100 134 55 65 100 126 100 136 0 9 4 21 9 26 6 6 6 27 0 55 -6 25 -14 88 -19 140 -5 52 -20 145 -33 206 -24 107 -29 119 -133 295 -60 100 -108 190 -106 200 2 9 -10 30 -26 45 -16 16 -36 40 -45 54 l-17 26 75 44 c41 25 75 48 75 52 0 4 -15 8 -32 10 -18 2 297 2 701 0 404 -1 737 -5 740 -7z m-1482 -2 c-4 -3 -10 -3 -14 0 -3 4 0 7 7 7 7 0 10 -3 7 -7z m897 -1037 c37 -48 33 -59 -5 -13 -25 30 -34 35 -45 26 -9 -7 -14 -8 -14 -1 0 9 14 19 31 21 4 1 18 -14 33 -33z m1644 -633 c33 -49 34 -59 2 -20 -28 32 -35 36 -49 25 -14 -12 -14 -11 -2 5 18 23 26 22 49 -10z m-2231 -54 c8 -8 13 -8 17 0 8 12 86 15 124 5 15 -4 31 -25 48 -61 25 -52 27 -78 9 -125 -6 -14 -2 -18 19 -18 48 0 24 -53 -37 -81 -29 -13 -65 -19 -119 -19 -68 0 -80 3 -108 26 -17 15 -40 44 -51 65 -24 47 -35 144 -20 182 12 32 41 36 48 7 7 -27 20 -25 27 5 7 26 25 32 43 14z m1971 -136 c-125 -2 -332 -2 -460 0 -128 1 -26 2 227 2 253 0 358 -1 233 -2z m258 -560 c34 -47 37 -60 6 -24 -21 25 -34 32 -47 27 -15 -5 -16 -4 -5 9 17 21 23 19 46 -12z m-418 -90 c-98 -2 -258 -2 -355 0 -98 1 -18 2 177 2 195 0 275 -1 178 -2z"/>
<path d="M5235 2557 c-81 -130 -78 -122 -56 -141 18 -17 20 -14 61 89 23 59 40 109 38 110 -2 2 -21 -24 -43 -58z"/>
</g>
<g id="layer107" fill="#86808d" stroke="none">
<path d="M0 4000 l0 -4000 6000 0 6000 0 0 4000 0 4000 -6000 0 -6000 0 0 -4000z m6429 -145 c3 -3 -150 -5 -339 -5 -334 1 -344 1 -351 -18 -11 -29 -49 -52 -86 -52 -31 0 -32 -1 -26 -32 3 -18 12 -37 19 -43 20 -15 46 -420 42 -653 -3 -184 -2 -192 16 -192 27 0 56 -29 56 -56 0 -13 -11 -33 -24 -46 -30 -28 -165 -286 -165 -314 1 -25 -6 -58 -28 -123 -40 -118 -146 -171 -247 -121 -53 25 -256 215 -256 238 0 10 45 70 100 135 55 65 100 126 100 136 0 9 4 21 9 26 6 6 6 27 0 55 -6 25 -14 88 -19 140 -5 52 -20 145 -33 206 -24 107 -29 119 -133 295 -60 100 -108 190 -106 200 2 9 -10 30 -26 45 -16 16 -36 40 -45 54 l-17 26 75 44 c41 25 75 48 75 52 0 4 -15 8 -32 10 -18 2 297 2 701 0 404 -1 737 -5 740 -7z m-1482 -2 c-4 -3 -10 -3 -14 0 -3 4 0 7 7 7 7 0 10 -3 7 -7z m898 -1033 c34 -49 28 -63 -9 -20 -20 25 -31 30 -48 24 -23 -7 -23 -6 -4 15 11 11 22 21 26 21 4 0 20 -18 35 -40z m1651 -645 c30 -40 25 -61 -5 -24 -11 13 -20 27 -21 32 0 4 -12 4 -27 1 -25 -7 -27 -6 -14 9 20 25 37 21 67 -18z m-2239 -46 c8 -8 13 -8 17 0 8 12 86 15 124 5 15 -4 31 -25 48 -61 25 -52 27 -78 9 -125 -6 -14 -2 -18 19 -18 48 0 24 -53 -37 -81 -29 -13 -65 -19 -119 -19 -68 0 -80 3 -108 26 -17 15 -40 44 -51 65 -24 47 -35 144 -20 182 12 32 41 36 48 7 7 -27 20 -25 27 5 7 26 25 32 43 14z m1971 -136 c-125 -2 -332 -2 -460 0 -128 1 -26 2 227 2 253 0 358 -1 233 -2z m268 -568 c33 -44 24 -59 -11 -17 -19 22 -31 29 -48 24 -20 -5 -20 -4 -8 11 20 25 37 21 67 -18z m-428 -82 c-98 -2 -258 -2 -355 0 -98 1 -18 2 177 2 195 0 275 -1 178 -2z"/>
</g>
<g id="layer108" fill="#8c8b97" stroke="none">
<path d="M0 4000 l0 -4000 6000 0 6000 0 0 4000 0 4000 -6000 0 -6000 0 0 -4000z m6429 -145 c3 -3 -150 -5 -339 -5 -334 1 -344 1 -351 -18 -11 -29 -49 -52 -86 -52 -31 0 -32 -1 -26 -32 3 -18 12 -37 19 -43 20 -15 46 -420 42 -653 -3 -184 -2 -192 16 -192 27 0 56 -29 56 -56 0 -13 -11 -33 -24 -46 -30 -28 -165 -286 -165 -314 1 -25 -6 -58 -28 -123 -40 -118 -146 -171 -247 -121 -53 25 -256 215 -256 238 0 10 43 67 95 128 102 120 126 168 113 224 -4 19 -12 80 -17 135 -6 55 -21 150 -34 211 -24 107 -29 119 -133 295 -60 100 -108 190 -106 200 2 9 -10 30 -26 45 -16 16 -36 40 -45 54 l-17 26 75 44 c41 25 75 48 75 52 0 4 -15 8 -32 10 -18 2 297 2 701 0 404 -1 737 -5 740 -7z m-1482 -2 c-4 -3 -10 -3 -14 0 -3 4 0 7 7 7 7 0 10 -3 7 -7z m898 -1033 c34 -49 28 -63 -9 -20 -20 25 -31 30 -48 24 -23 -7 -23 -6 -4 15 11 11 22 21 26 21 4 0 20 -18 35 -40z m1383 -177 c-125 -2 -332 -2 -460 0 -128 1 -26 2 227 2 253 0 358 -1 233 -2z m268 -468 c30 -40 25 -61 -5 -24 -11 13 -20 27 -21 32 0 4 -12 4 -27 1 -25 -7 -27 -6 -14 9 20 25 37 21 67 -18z m-2239 -46 c8 -8 13 -8 17 0 8 12 86 15 124 5 15 -4 31 -25 48 -61 25 -52 27 -78 9 -125 -6 -14 -2 -18 19 -18 48 0 24 -53 -37 -81 -29 -13 -65 -19 -119 -19 -68 0 -80 3 -108 26 -17 15 -40 44 -51 65 -24 47 -35 144 -20 182 12 32 41 36 48 7 7 -27 20 -25 27 5 7 26 25 32 43 14z m1811 -36 c-98 -2 -258 -2 -355 0 -98 1 -18 2 177 2 195 0 275 -1 178 -2z m155 -100 c-128 -2 -338 -2 -465 0 -128 1 -24 2 232 2 256 0 360 -1 233 -2z m273 -568 c33 -44 24 -59 -11 -17 -19 22 -31 29 -48 24 -20 -5 -20 -4 -8 11 20 25 37 21 67 -18z m-428 -82 c-97 -2 -259 -2 -360 0 -101 1 -21 2 177 2 198 0 280 -1 183 -2z"/>
<path d="M5060 3827 c0 -39 -15 -64 -50 -82 l-30 -16 21 -28 c18 -24 27 -28 53 -25 30 5 33 2 106 -117 138 -224 159 -263 227 -411 37 -82 70 -148 74 -148 4 0 10 24 13 53 3 28 15 138 26 242 11 105 25 237 31 295 6 58 15 109 20 115 12 12 12 75 -1 75 -5 0 -10 17 -10 38 l0 37 -240 0 -240 0 0 -28z"/>
</g>
<g id="layer109" fill="#e77c85" stroke="none">
<path d="M0 4000 l0 -4000 6000 0 6000 0 0 4000 0 4000 -6000 0 -6000 0 0 -4000z m6428 -145 c4 -3 -149 -5 -338 -5 -334 1 -344 1 -351 -18 -11 -29 -49 -52 -86 -52 -31 0 -32 -1 -26 -32 3 -18 12 -37 19 -43 20 -15 46 -420 42 -653 -3 -184 -2 -192 16 -192 27 0 56 -29 56 -56 0 -13 -11 -33 -24 -46 -30 -28 -165 -286 -165 -314 1 -25 -6 -58 -28 -123 -40 -118 -146 -171 -247 -121 -53 25 -256 215 -256 238 0 10 43 67 95 128 102 120 126 168 113 224 -4 19 -12 80 -17 135 -6 55 -21 150 -34 212 -24 108 -29 118 -136 297 -60 103 -108 192 -105 200 3 7 -8 26 -24 42 -15 16 -36 40 -45 54 l-17 26 75 44 c41 25 75 48 75 52 0 3 -134 7 -297 8 -163 0 -299 3 -302 7 -7 7 2000 -4 2007 -12z m640 -912 c-97 -2 -259 -2 -360 0 -101 1 -21 2 177 2 198 0 280 -1 183 -2z m-1223 -123 c34 -49 28 -63 -9 -20 -20 25 -31 30 -48 24 -23 -7 -23 -6 -4 15 11 11 22 21 26 21 4 0 20 -18 35 -40z m1223 23 c-98 -2 -258 -2 -355 0 -98 1 -18 2 177 2 195 0 275 -1 178 -2z m155 -100 c-128 -2 -338 -2 -465 0 -128 1 -24 2 232 2 256 0 360 -1 233 -2z m10 -100 c-127 -2 -339 -2 -470 0 -131 1 -26 2 232 2 259 0 366 -1 238 -2z m0 -100 c-127 -2 -339 -2 -470 0 -131 1 -26 2 232 2 259 0 366 -1 238 -2z m263 -368 c30 -40 25 -61 -5 -24 -11 13 -20 27 -21 32 0 4 -12 4 -27 1 -25 -7 -27 -6 -14 9 20 25 37 21 67 -18z m-428 18 c-97 -2 -259 -2 -360 0 -101 1 -21 2 177 2 198 0 280 -1 183 -2z m-1811 -64 c8 -8 13 -8 17 0 9 13 95 15 129 2 15 -6 32 -28 47 -63 19 -44 21 -59 13 -90 -11 -41 -8 -48 19 -48 23 0 23 -21 1 -49 -49 -60 -223 -73 -278 -21 -58 54 -92 177 -66 243 12 32 41 36 48 7 7 -27 20 -25 27 5 7 26 25 32 43 14z m1816 -36 c-101 -2 -265 -2 -365 0 -101 1 -19 2 182 2 201 0 283 -1 183 -2z m160 -100 c-127 -2 -339 -2 -470 0 -131 1 -26 2 232 2 259 0 366 -1 238 -2z m0 -100 c-127 -2 -339 -2 -470 0 -131 1 -26 2 232 2 259 0 366 -1 238 -2z m-10 -100 c-128 -2 -338 -2 -465 0 -128 1 -24 2 232 2 256 0 360 -1 233 -2z m273 -368 c33 -44 24 -59 -11 -17 -19 22 -31 29 -48 24 -20 -5 -20 -4 -8 11 20 25 37 21 67 -18z m-428 18 c-97 -2 -259 -2 -360 0 -101 1 -21 2 177 2 198 0 280 -1 183 -2z m5 -100 c-101 -2 -265 -2 -365 0 -101 1 -19 2 182 2 201 0 283 -1 183 -2z m160 -100 c-127 -2 -339 -2 -470 0 -131 1 -26 2 232 2 259 0 366 -1 238 -2z m-10 -100 c-128 -2 -338 -2 -465 0 -128 1 -24 2 232 2 256 0 360 -1 233 -2z m10 -100 c-127 -2 -339 -2 -470 0 -131 1 -26 2 232 2 259 0 366 -1 238 -2z"/>
<path d="M5211 2518 c-38 -62 -48 -85 -39 -95 14 -18 25 -16 33 5 27 68 64 172 61 172 -3 0 -27 -37 -55 -82z"/>
</g>
<g id="layer110" fill="#e98d95" stroke="none">
<path d="M0 4000 l0 -4000 6000 0 6000 0 0 4000 0 4000 -6000 0 -6000 0 0 -4000z m6428 -145 c4 -3 -149 -5 -338 -5 -334 1 -344 1 -351 -18 -11 -29 -49 -52 -86 -52 -31 0 -32 -1 -26 -32 3 -18 12 -37 19 -43 20 -15 46 -420 42 -653 -2 -145 0 -191 9 -188 19 8 63 -33 63 -59 0 -13 -9 -33 -21 -44 -12 -11 -18 -24 -15 -30 4 -6 1 -9 -6 -6 -14 4 -158 -269 -147 -280 9 -8 -18 -108 -43 -163 -28 -60 -94 -102 -158 -102 -34 0 -58 8 -94 30 -62 40 -236 208 -236 229 0 9 43 66 95 127 102 120 126 168 113 224 -4 19 -12 80 -17 135 -6 55 -21 150 -34 212 -24 108 -29 118 -136 297 -60 103 -108 192 -105 200 3 7 -8 26 -24 42 -15 16 -36 40 -45 54 l-17 26 75 44 c41 25 75 48 75 52 0 3 -134 7 -297 8 -163 0 -299 3 -302 7 -7 7 2000 -4 2007 -12z m640 -912 c-97 -2 -259 -2 -360 0 -101 1 -21 2 177 2 198 0 280 -1 183 -2z m-1308 -17 c0 -3 -5 -8 -12 -12 -7 -4 -8 -3 -4 4 7 12 16 16 16 8z m155 -16 c3 -5 4 -10 1 -10 -3 0 -8 5 -11 10 -3 6 -4 10 -1 10 3 0 8 -4 11 -10z m-66 -92 c36 -49 24 -65 -14 -20 -17 21 -31 28 -45 25 -25 -7 -26 5 -2 23 25 19 27 18 61 -28z m1219 25 c-98 -2 -258 -2 -355 0 -98 1 -18 2 177 2 195 0 275 -1 178 -2z m155 -100 c-128 -2 -338 -2 -465 0 -128 1 -24 2 232 2 256 0 360 -1 233 -2z m-1416 -60 c-4 -3 -10 -3 -14 0 -3 4 0 7 7 7 7 0 10 -3 7 -7z m50 1 c-3 -3 -12 -4 -19 -1 -8 3 -5 6 6 6 11 1 17 -2 13 -5z m1376 -41 c-127 -2 -339 -2 -470 0 -131 1 -26 2 232 2 259 0 366 -1 238 -2z m0 -100 c-127 -2 -339 -2 -470 0 -131 1 -26 2 232 2 259 0 366 -1 238 -2z m167 -267 c0 -3 -5 -8 -12 -12 -7 -4 -8 -3 -4 4 7 12 16 16 16 8z m171 -13 c13 -16 12 -17 -3 -4 -17 13 -22 21 -14 21 2 0 10 -8 17 -17z m-78 -77 c27 -35 34 -56 19 -56 -5 0 -18 13 -30 29 -15 21 -27 28 -42 24 -25 -7 -26 5 -2 23 24 18 24 18 55 -20z m-425 7 c-97 -2 -259 -2 -360 0 -101 1 -21 2 177 2 198 0 280 -1 183 -2z m279 -40 c-3 -10 -5 -2 -5 17 0 19 2 27 5 18 2 -10 2 -26 0 -35z m-2090 -24 c8 -8 13 -8 17 0 9 13 95 15 129 2 15 -6 32 -28 47 -63 19 -44 21 -59 13 -90 -11 -41 -8 -48 19 -48 23 0 23 -21 1 -49 -49 -60 -223 -73 -278 -21 -58 54 -92 177 -66 243 12 32 41 36 48 7 7 -27 20 -25 27 5 7 26 25 32 43 14z m1816 -36 c-101 -2 -265 -2 -365 0 -101 1 -19 2 182 2 201 0 283 -1 183 -2z m160 -100 c-127 -2 -339 -2 -470 0 -131 1 -26 2 232 2 259 0 366 -1 238 -2z m0 -100 c-127 -2 -339 -2 -470 0 -131 1 -26 2 232 2 259 0 366 -1 238 -2z m-10 -100 c-128 -2 -338 -2 -465 0 -128 1 -24 2 232 2 256 0 360 -1 233 -2z m177 -267 c0 -3 -5 -8 -12 -12 -7 -4 -8 -3 -4 4 7 12 16 16 16 8z m99 -101 c21 -29 27 -45 19 -45 -8 0 -24 14 -37 31 -18 25 -25 28 -37 18 -22 -18 -30 -2 -9 21 10 11 21 20 25 20 4 0 21 -20 39 -45z m-431 18 c-97 -2 -259 -2 -360 0 -101 1 -21 2 177 2 198 0 280 -1 183 -2z m279 -40 c-3 -10 -5 -2 -5 17 0 19 2 27 5 18 2 -10 2 -26 0 -35z m-274 -60 c-101 -2 -265 -2 -365 0 -101 1 -19 2 182 2 201 0 283 -1 183 -2z m444 -50 c-4 -3 -10 -3 -14 0 -3 4 0 7 7 7 7 0 10 -3 7 -7z m-284 -50 c-127 -2 -339 -2 -470 0 -131 1 -26 2 232 2 259 0 366 -1 238 -2z m-10 -100 c-128 -2 -338 -2 -465 0 -128 1 -24 2 232 2 256 0 360 -1 233 -2z m10 -100 c-127 -2 -339 -2 -470 0 -131 1 -26 2 232 2 259 0 366 -1 238 -2z"/>
<path d="M5217 2528 c-56 -89 -59 -94 -42 -108 9 -7 17 -11 19 -9 8 9 65 163 62 167 -3 2 -20 -20 -39 -50z"/>
</g>
<g id="layer111" fill="#b6b5bd" stroke="none">
<path d="M0 4000 l0 -4000 6000 0 6000 0 0 4000 0 4000 -6000 0 -6000 0 0 -4000z m6428 -145 c4 -3 -149 -5 -338 -5 -334 1 -344 1 -351 -18 -11 -29 -49 -52 -86 -52 -31 0 -32 -1 -26 -32 3 -18 12 -37 19 -43 20 -15 46 -420 42 -653 -1 -105 0 -192 3 -192 3 0 11 10 18 23 7 13 22 29 34 36 17 10 15 6 -7 -18 l-29 -31 26 -20 c32 -26 35 -63 7 -87 -27 -23 -25 -30 13 -53 46 -29 108 -26 146 5 16 14 33 35 36 46 4 11 9 18 12 15 3 -2 -3 -18 -12 -34 -39 -65 -123 -81 -190 -37 -20 15 -38 25 -39 23 0 -2 -32 -63 -69 -136 -38 -73 -67 -138 -64 -145 6 -18 -32 -148 -55 -185 -11 -18 -40 -44 -64 -58 -57 -33 -131 -31 -184 6 -56 39 -230 213 -230 230 0 8 43 65 95 126 102 120 126 168 113 224 -4 19 -12 80 -17 135 -6 55 -21 150 -34 212 -24 108 -29 118 -136 297 -60 103 -108 192 -105 200 3 7 -8 26 -24 42 -15 16 -36 40 -45 54 l-17 26 75 44 c41 25 75 48 75 52 0 3 -134 7 -297 8 -163 0 -299 3 -302 7 -7 7 2000 -4 2007 -12z m-554 -919 c33 -14 76 -59 76 -80 0 -6 -9 3 -20 21 -22 36 -42 49 -97 62 -24 6 -30 9 -15 10 12 1 37 -5 56 -13z m1194 7 c-97 -2 -259 -2 -360 0 -101 1 -21 2 177 2 198 0 280 -1 183 -2z m-1281 -10 c-4 -3 -10 -3 -14 0 -3 4 0 7 7 7 7 0 10 -3 7 -7z m62 -112 c34 -43 37 -51 18 -51 -7 0 -23 13 -35 29 -15 21 -27 28 -42 24 -25 -7 -27 12 -2 26 25 15 28 14 61 -28z m1219 22 c-98 -2 -258 -2 -355 0 -98 1 -18 2 177 2 195 0 275 -1 178 -2z m-1111 -40 c-3 -10 -5 -4 -5 12 0 17 2 24 5 18 2 -7 2 -21 0 -30z m1266 -60 c-128 -2 -338 -2 -465 0 -128 1 -24 2 232 2 256 0 360 -1 233 -2z m10 -100 c-127 -2 -339 -2 -470 0 -131 1 -26 2 232 2 259 0 366 -1 238 -2z m0 -100 c-127 -2 -339 -2 -470 0 -131 1 -26 2 232 2 259 0 366 -1 238 -2z m250 -240 c-7 -2 -19 -2 -25 0 -7 3 -2 5 12 5 14 0 19 -2 13 -5z m-69 -22 c-18 -11 -39 -30 -48 -42 -9 -13 -16 -18 -16 -12 0 14 67 73 83 73 7 0 -2 -9 -19 -19z m120 10 c4 -5 -3 -7 -14 -4 -23 6 -26 13 -6 13 8 0 17 -4 20 -9z m66 -74 c0 -7 -6 -3 -12 8 -6 11 -16 27 -22 35 -6 9 -1 5 12 -8 12 -13 22 -28 22 -35z m-101 -39 c39 -53 28 -73 -14 -23 -21 24 -35 33 -39 26 -9 -14 -26 -14 -26 0 0 12 29 38 42 39 3 0 20 -19 37 -42z m-143 -47 c3 -13 20 -38 37 -54 24 -22 26 -27 9 -18 -35 19 -62 70 -60 116 1 32 2 34 5 10 2 -16 6 -41 9 -54z m-288 62 c-97 -2 -259 -2 -360 0 -101 1 -21 2 177 2 198 0 280 -1 183 -2z m-1811 -64 c8 -8 13 -8 17 0 9 13 95 15 129 2 15 -6 32 -28 47 -63 19 -44 21 -59 13 -90 -11 -41 -8 -48 19 -48 23 0 23 -21 1 -49 -49 -60 -223 -73 -278 -21 -58 54 -92 177 -66 243 12 32 41 36 48 7 7 -27 20 -25 27 5 7 26 25 32 43 14z m2332 -23 c-18 -39 -68 -66 -120 -65 l-44 2 52 6 c54 7 97 36 109 73 3 11 8 17 10 15 3 -2 -1 -16 -7 -31z m-516 -13 c-101 -2 -265 -2 -365 0 -101 1 -19 2 182 2 201 0 283 -1 183 -2z m160 -100 c-127 -2 -339 -2 -470 0 -131 1 -26 2 232 2 259 0 366 -1 238 -2z m0 -100 c-127 -2 -339 -2 -470 0 -131 1 -26 2 232 2 259 0 366 -1 238 -2z m-10 -100 c-128 -2 -338 -2 -465 0 -128 1 -24 2 232 2 256 0 360 -1 233 -2z m207 -256 c-44 -15 -80 -68 -80 -117 0 -49 36 -102 80 -117 24 -8 29 -12 14 -12 -47 -2 -104 70 -104 129 0 59 57 131 104 129 15 0 10 -4 -14 -12z m87 7 c-3 -3 -12 -4 -19 -1 -8 3 -5 6 6 6 11 1 17 -2 13 -5z m67 -49 c10 -15 15 -29 12 -33 -3 -3 -6 0 -6 6 0 6 -15 25 -32 43 -21 21 -25 28 -12 21 12 -6 29 -23 38 -37z m-85 -67 c37 -50 29 -75 -10 -29 -21 25 -32 31 -48 26 -26 -8 -28 12 -3 31 25 19 27 18 61 -28z m-431 15 c-97 -2 -259 -2 -360 0 -101 1 -21 2 177 2 198 0 280 -1 183 -2z m529 -70 c-4 -3 -7 0 -7 7 0 7 3 10 7 7 3 -4 3 -10 0 -14z m-17 -33 c-11 -20 -59 -50 -82 -50 -7 0 5 9 27 20 22 11 43 27 48 35 12 23 19 18 7 -5z m-507 3 c-101 -2 -265 -2 -365 0 -101 1 -19 2 182 2 201 0 283 -1 183 -2z m160 -100 c-127 -2 -339 -2 -470 0 -131 1 -26 2 232 2 259 0 366 -1 238 -2z m-10 -100 c-128 -2 -338 -2 -465 0 -128 1 -24 2 232 2 256 0 360 -1 233 -2z m10 -100 c-127 -2 -339 -2 -470 0 -131 1 -26 2 232 2 259 0 366 -1 238 -2z"/>
<path d="M5060 3827 c0 -39 -15 -64 -50 -82 l-30 -16 21 -28 c18 -24 27 -28 53 -25 30 5 33 2 106 -117 138 -224 159 -263 227 -411 61 -136 83 -171 83 -134 0 55 73 683 81 691 12 12 12 75 -1 75 -5 0 -10 17 -10 38 l0 37 -240 0 -240 0 0 -28z"/>
</g>
<g id="layer112" fill="#e6abb0" stroke="none">
<path d="M0 4000 l0 -4000 6000 0 6000 0 0 4000 0 4000 -6000 0 -6000 0 0 -4000z m6430 -143 c0 -4 -154 -7 -342 -7 -325 1 -342 1 -349 -17 -10 -28 -36 -46 -77 -52 -32 -6 -37 -10 -34 -31 2 -14 10 -32 18 -40 20 -24 46 -424 42 -658 -1 -105 0 -192 3 -192 3 0 11 10 18 23 7 13 22 29 34 36 17 10 15 6 -7 -18 l-29 -31 26 -20 c32 -26 35 -63 7 -87 -27 -23 -25 -30 13 -53 46 -29 108 -26 146 5 16 14 33 35 36 46 4 11 9 18 12 15 3 -2 -3 -18 -12 -34 -39 -65 -123 -81 -190 -37 -20 15 -38 25 -39 23 0 -2 -32 -63 -69 -136 -38 -73 -67 -138 -64 -145 6 -18 -32 -148 -55 -185 -11 -18 -40 -44 -64 -58 -57 -33 -131 -31 -184 6 -56 39 -230 213 -230 230 0 8 45 68 100 132 84 100 100 125 106 163 3 25 3 55 0 68 -4 12 -9 58 -12 102 -3 44 -9 98 -15 120 -5 22 -18 81 -28 132 -18 85 -27 105 -131 279 -61 103 -109 193 -106 200 3 7 -7 26 -23 41 -15 15 -35 39 -44 53 l-17 26 75 44 c41 24 72 46 69 49 -2 3 -137 4 -299 2 -229 -2 -295 0 -295 10 0 9 212 11 1005 8 553 -2 1005 -8 1005 -12z m-556 -921 c33 -14 76 -59 76 -80 0 -6 -9 3 -20 21 -22 36 -42 49 -97 62 -24 6 -30 9 -15 10 12 1 37 -5 56 -13z m1366 4 c0 -6 -125 -10 -355 -10 -230 0 -355 4 -355 10 0 6 125 10 355 10 230 0 355 -4 355 -10z m-1453 -7 c-4 -3 -10 -3 -14 0 -3 4 0 7 7 7 7 0 10 -3 7 -7z m62 -112 c34 -43 37 -51 18 -51 -7 0 -23 13 -35 29 -15 21 -27 28 -42 24 -25 -7 -27 12 -2 26 25 15 28 14 61 -28z m1224 22 c-101 -2 -265 -2 -365 0 -101 1 -19 2 182 2 201 0 283 -1 183 -2z m-1116 -40 c-3 -10 -5 -4 -5 12 0 17 2 24 5 18 2 -7 2 -21 0 -30z m1276 -60 c-127 -2 -339 -2 -470 0 -131 1 -26 2 232 2 259 0 366 -1 238 -2z m222 -103 c-4 -6 -168 -10 -460 -10 -292 0 -456 4 -460 10 -4 7 152 10 460 10 308 0 464 -3 460 -10z m-222 -97 c-127 -2 -339 -2 -470 0 -131 1 -26 2 232 2 259 0 366 -1 238 -2z m250 -240 c-7 -2 -19 -2 -25 0 -7 3 -2 5 12 5 14 0 19 -2 13 -5z m-69 -22 c-18 -11 -39 -30 -48 -42 -9 -13 -16 -18 -16 -12 0 14 67 73 83 73 7 0 -2 -9 -19 -19z m120 10 c4 -5 -3 -7 -14 -4 -23 6 -26 13 -6 13 8 0 17 -4 20 -9z m66 -74 c0 -7 -6 -3 -12 8 -6 11 -16 27 -22 35 -6 9 -1 5 12 -8 12 -13 22 -28 22 -35z m-101 -39 c39 -53 28 -73 -14 -23 -21 24 -35 33 -39 26 -9 -14 -26 -14 -26 0 0 12 29 38 42 39 3 0 20 -19 37 -42z m-143 -47 c3 -13 20 -38 37 -54 24 -22 26 -27 9 -18 -35 19 -62 70 -60 116 1 32 2 34 5 10 2 -16 6 -41 9 -54z m-288 62 c-97 -2 -259 -2 -360 0 -101 1 -21 2 177 2 198 0 280 -1 183 -2z m-1813 -63 c5 -8 11 -7 21 1 9 7 37 10 75 7 50 -4 65 -9 79 -29 29 -38 44 -103 32 -138 -12 -33 -7 -41 20 -41 22 0 23 -18 3 -47 -43 -61 -224 -75 -281 -23 -59 55 -91 174 -64 244 11 31 40 34 47 6 7 -27 20 -25 27 5 6 25 30 34 41 15z m2334 -24 c-18 -39 -68 -66 -120 -65 l-44 2 52 6 c54 7 97 36 109 73 3 11 8 17 10 15 3 -2 -1 -16 -7 -31z m-516 -13 c-101 -2 -265 -2 -365 0 -101 1 -19 2 182 2 201 0 283 -1 183 -2z m160 -100 c-127 -2 -339 -2 -470 0 -131 1 -26 2 232 2 259 0 366 -1 238 -2z m0 -100 c-127 -2 -339 -2 -470 0 -131 1 -26 2 232 2 259 0 366 -1 238 -2z m0 -100 c-127 -2 -339 -2 -470 0 -131 1 -26 2 232 2 259 0 366 -1 238 -2z m197 -256 c-44 -15 -80 -68 -80 -117 0 -49 36 -102 80 -117 24 -8 29 -12 14 -12 -47 -2 -104 70 -104 129 0 59 57 131 104 129 15 0 10 -4 -14 -12z m87 7 c-3 -3 -12 -4 -19 -1 -8 3 -5 6 6 6 11 1 17 -2 13 -5z m67 -49 c10 -15 15 -29 12 -33 -3 -3 -6 0 -6 6 0 6 -15 25 -32 43 -21 21 -25 28 -12 21 12 -6 29 -23 38 -37z m-85 -67 c37 -50 29 -75 -10 -29 -21 25 -32 31 -48 26 -26 -8 -28 12 -3 31 25 19 27 18 61 -28z m-426 15 c-101 -2 -265 -2 -365 0 -101 1 -19 2 182 2 201 0 283 -1 183 -2z m524 -70 c-4 -3 -7 0 -7 7 0 7 3 10 7 7 3 -4 3 -10 0 -14z m-17 -33 c-11 -20 -59 -50 -82 -50 -7 0 5 9 27 20 22 11 43 27 48 35 12 23 19 18 7 -5z m-507 3 c-101 -2 -265 -2 -365 0 -101 1 -19 2 182 2 201 0 283 -1 183 -2z m160 -100 c-127 -2 -339 -2 -470 0 -131 1 -26 2 232 2 259 0 366 -1 238 -2z m0 -100 c-127 -2 -339 -2 -470 0 -131 1 -26 2 232 2 259 0 366 -1 238 -2z m0 -100 c-127 -2 -339 -2 -470 0 -131 1 -26 2 232 2 259 0 366 -1 238 -2z"/>
<path d="M5060 3827 c0 -39 -15 -64 -50 -82 l-30 -16 21 -28 c18 -24 27 -28 53 -25 30 5 33 2 106 -117 138 -224 159 -263 227 -411 63 -140 83 -171 83 -130 0 9 7 76 15 147 8 72 19 177 24 235 19 195 32 285 43 318 10 25 10 37 0 52 -7 11 -12 34 -12 52 l0 33 -240 0 -240 0 0 -28z"/>
<path d="M5202 2503 c-35 -59 -39 -70 -27 -82 8 -8 16 -13 18 -10 10 13 58 151 54 155 -2 2 -23 -26 -45 -63z"/>
</g>
<g id="layer113" fill="#d2d2d5" stroke="none">
<path d="M0 4000 l0 -4000 6000 0 6000 0 0 4000 0 4000 -6000 0 -6000 0 0 -4000z m6430 -143 c0 -4 -154 -7 -342 -7 -325 1 -342 1 -349 -17 -10 -28 -36 -46 -77 -52 -32 -6 -37 -10 -34 -31 2 -14 10 -32 18 -40 20 -24 46 -424 42 -658 l-3 -192 30 35 c49 56 112 70 174 37 63 -34 89 -119 56 -183 -36 -69 -145 -93 -203 -44 l-30 25 -45 -82 c-71 -132 -84 -160 -90 -204 -21 -133 -73 -225 -145 -254 -45 -18 -121 -8 -163 21 -55 38 -229 212 -229 229 0 8 45 68 100 132 84 100 100 125 106 163 3 25 3 55 0 68 -4 12 -9 58 -12 102 -3 44 -9 98 -15 120 -5 22 -18 81 -28 132 -18 85 -27 105 -131 279 -61 103 -109 193 -106 200 3 7 -7 26 -23 41 -15 15 -35 39 -44 53 l-17 26 75 44 c41 24 72 46 69 49 -2 3 -137 4 -299 2 -229 -2 -295 0 -295 10 0 9 212 11 1005 8 553 -2 1005 -8 1005 -12z m810 -917 c0 -6 -125 -10 -355 -10 -230 0 -355 4 -355 10 0 6 125 10 355 10 230 0 355 -4 355 -10z m-167 -97 c-101 -2 -265 -2 -365 0 -101 1 -19 2 182 2 201 0 283 -1 183 -2z m160 -100 c-127 -2 -339 -2 -470 0 -131 1 -26 2 232 2 259 0 366 -1 238 -2z m222 -103 c-4 -6 -168 -10 -460 -10 -292 0 -456 4 -460 10 -4 7 152 10 460 10 308 0 464 -3 460 -10z m-222 -97 c-127 -2 -339 -2 -470 0 -131 1 -26 2 232 2 259 0 366 -1 238 -2z m295 -247 c99 -52 109 -182 18 -241 -35 -23 -112 -22 -144 2 -43 32 -63 67 -64 111 -1 101 104 173 190 128z m-460 -103 c-97 -2 -259 -2 -360 0 -101 1 -21 2 177 2 198 0 280 -1 183 -2z m-1811 -64 c8 -8 13 -8 17 0 8 12 86 15 124 5 13 -4 34 -26 49 -51 22 -38 25 -52 20 -99 -5 -49 -4 -54 14 -54 23 0 24 -18 4 -47 -43 -61 -224 -75 -281 -23 -59 55 -91 174 -64 244 11 31 40 34 47 6 7 -27 20 -25 27 5 7 26 25 32 43 14z m1816 -36 c-101 -2 -265 -2 -365 0 -101 1 -19 2 182 2 201 0 283 -1 183 -2z m160 -100 c-127 -2 -339 -2 -470 0 -131 1 -26 2 232 2 259 0 366 -1 238 -2z m0 -100 c-127 -2 -339 -2 -470 0 -131 1 -26 2 232 2 259 0 366 -1 238 -2z m0 -100 c-127 -2 -339 -2 -470 0 -131 1 -26 2 232 2 259 0 366 -1 238 -2z m313 -258 c112 -73 63 -248 -70 -248 -78 0 -139 58 -139 134 0 107 120 173 209 114z m-473 -92 c-101 -2 -265 -2 -365 0 -101 1 -19 2 182 2 201 0 283 -1 183 -2z m0 -100 c-101 -2 -265 -2 -365 0 -101 1 -19 2 182 2 201 0 283 -1 183 -2z m160 -100 c-127 -2 -339 -2 -470 0 -131 1 -26 2 232 2 259 0 366 -1 238 -2z m0 -100 c-127 -2 -339 -2 -470 0 -131 1 -26 2 232 2 259 0 366 -1 238 -2z m0 -100 c-127 -2 -339 -2 -470 0 -131 1 -26 2 232 2 259 0 366 -1 238 -2z"/>
</g>
<g id="layer114" fill="#f2d1d4" stroke="none">
<path d="M0 4000 l0 -4000 6000 0 6000 0 0 4000 0 4000 -6000 0 -6000 0 0 -4000z m6430 -143 c0 -4 -154 -7 -342 -7 -325 1 -342 1 -349 -17 -10 -28 -36 -46 -77 -52 -32 -6 -37 -10 -34 -31 2 -14 10 -32 18 -40 20 -24 46 -424 42 -658 l-3 -192 30 35 c49 56 112 70 174 37 63 -34 89 -119 56 -183 -36 -69 -145 -93 -203 -44 l-30 25 -45 -82 c-71 -132 -84 -160 -90 -204 -21 -133 -73 -225 -145 -254 -45 -18 -121 -8 -163 21 -55 38 -229 212 -229 229 0 8 45 68 100 132 84 100 100 125 106 163 3 25 3 55 0 68 -4 12 -9 58 -12 102 -3 44 -9 98 -15 120 -5 22 -18 81 -28 132 -18 85 -27 105 -131 279 -61 103 -109 193 -106 200 3 7 -7 26 -23 41 -15 15 -35 39 -44 53 l-17 26 75 44 c41 24 72 46 69 49 -2 3 -137 4 -299 2 -229 -2 -295 0 -295 10 0 9 212 11 1005 8 553 -2 1005 -8 1005 -12z m815 -917 c-4 -6 -135 -10 -361 -10 -229 0 -354 4 -354 10 0 6 127 10 361 10 237 0 358 -3 354 -10z m0 -100 c-4 -6 -135 -10 -361 -10 -229 0 -354 4 -354 10 0 6 127 10 361 10 237 0 358 -3 354 -10z m215 -100 c0 -7 -162 -10 -465 -10 -303 0 -465 3 -465 10 0 7 162 10 465 10 303 0 465 -3 465 -10z m0 -100 c0 -7 -162 -10 -465 -10 -303 0 -465 3 -465 10 0 7 162 10 465 10 303 0 465 -3 465 -10z m-1030 -79 c18 -36 -11 -68 -50 -56 -42 13 -29 75 15 75 14 0 29 -8 35 -19z m1025 -21 c-4 -6 -168 -10 -460 -10 -292 0 -456 4 -460 10 -4 7 152 10 460 10 308 0 464 -3 460 -10z m73 -244 c99 -52 109 -182 18 -241 -35 -23 -112 -22 -144 2 -43 32 -63 67 -64 111 -1 101 104 173 190 128z m-283 -96 c4 -7 -117 -10 -355 -10 -238 0 -359 3 -355 10 4 6 133 10 355 10 222 0 351 -4 355 -10z m-1988 -71 c8 -8 13 -8 17 0 8 12 86 15 124 5 13 -4 34 -26 49 -51 22 -38 25 -52 20 -99 -5 -49 -4 -54 14 -54 23 0 24 -18 4 -47 -43 -61 -224 -75 -281 -23 -59 55 -91 174 -64 244 11 31 40 34 47 6 7 -27 20 -25 27 5 7 26 25 32 43 14z m1816 -36 c-101 -2 -265 -2 -365 0 -101 1 -19 2 182 2 201 0 283 -1 183 -2z m382 -93 c4 -7 -152 -10 -460 -10 -308 0 -464 3 -460 10 4 6 168 10 460 10 292 0 456 -4 460 -10z m0 -100 c4 -7 -152 -10 -459 -10 -304 0 -466 3 -466 10 0 7 160 10 459 10 296 0 462 -4 466 -10z m-1031 -79 c32 -35 -13 -83 -52 -55 -26 18 -27 31 -5 56 21 23 36 23 57 -1z m809 -28 c-127 -2 -339 -2 -470 0 -131 1 -26 2 232 2 259 0 366 -1 238 -2z m313 -258 c112 -73 63 -248 -70 -248 -78 0 -139 58 -139 134 0 107 120 173 209 114z m-473 -92 c-101 -2 -265 -2 -365 0 -101 1 -19 2 182 2 201 0 283 -1 183 -2z m172 -103 c-4 -6 -133 -10 -355 -10 -222 0 -351 4 -355 10 -4 7 117 10 355 10 238 0 359 -3 355 -10z m-12 -97 c-127 -2 -339 -2 -470 0 -131 1 -26 2 232 2 259 0 366 -1 238 -2z m0 -100 c-127 -2 -339 -2 -470 0 -131 1 -26 2 232 2 259 0 366 -1 238 -2z m-811 -70 c23 -21 23 -36 -3 -59 -15 -13 -24 -16 -36 -8 -32 20 -38 41 -19 63 23 25 34 26 58 4z m811 -30 c-127 -2 -339 -2 -470 0 -131 1 -26 2 232 2 259 0 366 -1 238 -2z"/>
<path d="M5792 2929 c-35 -7 -72 -35 -72 -54 0 -7 9 -20 20 -30 26 -23 26 -59 0 -83 -20 -18 -20 -19 6 -43 34 -32 110 -34 151 -3 59 44 62 134 6 186 -32 29 -64 37 -111 27z m62 -110 c36 -51 22 -76 -18 -29 -19 23 -31 30 -46 25 -23 -7 -28 13 -8 33 21 21 42 13 72 -29z"/>
<path d="M5206 2503 c-20 -32 -36 -63 -36 -70 0 -15 17 -26 24 -15 9 15 55 142 51 142 -2 0 -20 -26 -39 -57z"/>
<path d="M7404 2271 c-65 -40 -69 -137 -8 -190 63 -56 161 -30 192 51 19 48 9 83 -33 125 -27 27 -40 33 -76 33 -26 0 -57 -8 -75 -19z m99 -94 c21 -26 28 -40 20 -48 -7 -7 -18 -1 -37 21 -17 21 -32 30 -42 26 -26 -10 -37 5 -18 25 24 26 41 21 77 -24z"/>
<path d="M7409 1525 c-29 -15 -59 -70 -59 -105 0 -97 118 -154 196 -95 66 51 67 135 2 190 -34 29 -96 33 -139 10z m90 -94 c17 -21 31 -44 31 -50 0 -21 -25 -11 -45 19 -15 23 -25 29 -42 25 -31 -7 -38 11 -11 29 31 22 32 21 67 -23z"/>
</g>
<g id="layer115" fill="#dedee1" stroke="none">
<path d="M0 4000 l0 -4000 6000 0 6000 0 0 4000 0 4000 -6000 0 -6000 0 0 -4000z m6430 -143 c0 -4 -154 -7 -342 -7 -332 1 -342 1 -349 -18 -10 -28 -48 -52 -81 -52 -24 0 -28 -4 -28 -27 0 -14 7 -34 15 -43 21 -24 48 -417 43 -656 l-3 -191 35 40 c32 36 42 40 90 44 98 7 157 -53 147 -151 -4 -41 -11 -55 -39 -81 -50 -46 -98 -53 -161 -21 -28 14 -52 24 -53 23 -1 -1 -29 -54 -62 -117 -36 -69 -63 -135 -68 -165 -20 -133 -68 -215 -142 -245 -45 -18 -121 -8 -163 21 -55 38 -229 212 -229 229 0 8 45 68 99 132 92 108 100 122 106 170 4 29 3 64 -2 78 -5 14 -11 61 -12 105 -2 44 -5 83 -7 87 -2 3 -15 58 -28 122 -24 113 -26 118 -135 301 -61 103 -111 195 -111 206 0 11 -11 30 -23 42 -13 12 -31 33 -40 47 l-17 26 75 44 c41 24 72 46 69 49 -2 3 -137 4 -299 2 -229 -2 -295 0 -295 10 0 9 212 11 1005 8 553 -2 1005 -8 1005 -12z m815 -917 c-4 -6 -135 -10 -361 -10 -229 0 -354 4 -354 10 0 6 127 10 361 10 237 0 358 -3 354 -10z m0 -100 c-4 -6 -135 -10 -361 -10 -229 0 -354 4 -354 10 0 6 127 10 361 10 237 0 358 -3 354 -10z m215 -100 c0 -7 -162 -10 -465 -10 -303 0 -465 3 -465 10 0 7 162 10 465 10 303 0 465 -3 465 -10z m0 -100 c0 -7 -162 -10 -465 -10 -303 0 -465 3 -465 10 0 7 162 10 465 10 303 0 465 -3 465 -10z m-1030 -79 c18 -36 -11 -68 -50 -56 -42 13 -29 75 15 75 14 0 29 -8 35 -19z m1025 -21 c-4 -6 -168 -10 -460 -10 -292 0 -456 4 -460 10 -4 7 152 10 460 10 308 0 464 -3 460 -10z m92 -251 c43 -27 63 -66 63 -123 0 -108 -129 -169 -222 -104 -33 23 -63 97 -54 135 24 96 131 143 213 92z m-302 -89 c4 -7 -117 -10 -355 -10 -238 0 -359 3 -355 10 4 6 133 10 355 10 222 0 351 -4 355 -10z m-1988 -71 c8 -8 13 -8 17 0 8 12 86 15 123 5 12 -3 34 -24 48 -46 24 -36 27 -49 23 -99 -4 -52 -2 -59 14 -59 22 0 23 -18 3 -47 -43 -61 -224 -75 -281 -23 -59 55 -91 174 -64 244 11 31 40 34 47 6 7 -27 20 -25 27 5 7 26 25 32 43 14z m1816 -36 c-101 -2 -265 -2 -365 0 -101 1 -19 2 182 2 201 0 283 -1 183 -2z m382 -93 c4 -7 -152 -10 -460 -10 -308 0 -464 3 -460 10 4 6 168 10 460 10 292 0 456 -4 460 -10z m0 -100 c4 -7 -152 -10 -459 -10 -304 0 -466 3 -466 10 0 7 160 10 459 10 296 0 462 -4 466 -10z m-1031 -79 c32 -35 -13 -83 -52 -55 -26 18 -27 31 -5 56 21 23 36 23 57 -1z m809 -28 c-127 -2 -339 -2 -470 0 -131 1 -26 2 232 2 259 0 366 -1 238 -2z m303 -249 c99 -47 98 -201 -3 -249 -117 -56 -245 71 -186 185 37 71 117 98 189 64z m-463 -101 c-101 -2 -265 -2 -365 0 -101 1 -19 2 182 2 201 0 283 -1 183 -2z m172 -103 c-4 -6 -133 -10 -355 -10 -222 0 -351 4 -355 10 -4 7 117 10 355 10 238 0 359 -3 355 -10z m-12 -97 c-127 -2 -339 -2 -470 0 -131 1 -26 2 232 2 259 0 366 -1 238 -2z m0 -100 c-127 -2 -339 -2 -470 0 -131 1 -26 2 232 2 259 0 366 -1 238 -2z m-811 -70 c23 -21 23 -36 -3 -59 -15 -13 -24 -16 -36 -8 -32 20 -38 41 -19 63 23 25 34 26 58 4z m811 -30 c-127 -2 -339 -2 -470 0 -131 1 -26 2 232 2 259 0 366 -1 238 -2z"/>
<path d="M5197 2483 c-19 -31 -25 -49 -18 -56 10 -10 27 20 45 81 11 32 4 27 -27 -25z"/>
<path d="M7396 2260 c-104 -92 3 -254 128 -195 82 39 90 158 14 205 -49 30 -100 26 -142 -10z m108 -78 c14 -21 26 -43 26 -50 0 -22 -26 -12 -48 18 -13 17 -28 27 -37 24 -26 -10 -38 6 -19 27 26 29 48 23 78 -19z"/>
</g>
<g id="layer116" fill="#f5dfe2" stroke="none">
<path d="M0 4000 l0 -4000 6000 0 6000 0 0 4000 0 4000 -6000 0 -6000 0 0 -4000z m6430 -143 c0 -4 -154 -7 -342 -7 -332 1 -342 1 -349 -18 -10 -28 -48 -52 -81 -52 -24 0 -28 -4 -28 -27 0 -14 7 -34 15 -43 21 -24 48 -417 43 -656 l-3 -192 32 38 c34 40 69 55 118 50 81 -6 128 -65 122 -149 -3 -47 -9 -59 -39 -86 -50 -46 -98 -53 -161 -21 -28 14 -52 24 -53 23 -1 -1 -29 -54 -62 -117 -36 -69 -63 -135 -68 -165 -20 -133 -68 -215 -142 -245 -45 -18 -121 -8 -163 21 -55 38 -229 212 -229 229 0 8 45 67 99 132 91 108 99 120 105 170 4 30 3 65 -2 79 -4 13 -10 60 -11 104 -2 44 -5 83 -7 87 -2 3 -15 58 -28 122 -24 113 -26 118 -135 301 -61 103 -111 195 -111 205 0 11 -11 29 -24 42 -13 13 -31 34 -40 48 l-16 26 75 44 c41 24 72 46 69 49 -2 3 -137 4 -298 2 -225 -2 -296 0 -301 10 -6 9 202 11 1003 8 557 -2 1012 -8 1012 -12z m820 -917 c0 -6 -128 -10 -365 -10 -237 0 -365 4 -365 10 0 6 128 10 365 10 237 0 365 -4 365 -10z m5 -100 c-4 -6 -137 -10 -365 -10 -228 0 -361 4 -365 10 -4 7 120 10 365 10 245 0 369 -3 365 -10z m210 -100 c-4 -6 -172 -10 -470 -10 -298 0 -466 4 -470 10 -4 7 155 10 470 10 315 0 474 -3 470 -10z m0 -100 c-4 -6 -173 -10 -476 -10 -306 0 -469 3 -469 10 0 7 165 10 476 10 314 0 473 -3 469 -10z m-1035 -79 c18 -36 -11 -68 -50 -56 -42 13 -29 75 15 75 14 0 29 -8 35 -19z m1024 -7 c50 -19 -38 -24 -459 -24 -417 0 -509 5 -463 23 18 8 903 8 922 1z m93 -265 c43 -27 63 -66 63 -123 0 -36 -6 -52 -31 -81 -76 -87 -206 -58 -240 53 -35 118 101 217 208 151z m-297 -89 c0 -6 -129 -10 -366 -10 -241 0 -363 3 -359 10 4 6 137 10 366 10 233 0 359 -4 359 -10z m-1995 -70 c5 -8 11 -7 21 1 23 19 134 7 151 -17 7 -10 21 -28 30 -38 17 -21 23 -87 11 -123 -6 -19 -4 -23 12 -23 24 0 26 -18 5 -47 -43 -61 -224 -75 -281 -23 -59 55 -91 174 -64 244 11 31 40 34 47 6 7 -27 20 -25 27 5 6 25 30 34 41 15z m2000 -35 c0 -10 -697 -20 -723 -10 -7 3 -10 9 -7 15 9 14 730 9 730 -5z m210 -95 c4 -7 -155 -10 -470 -10 -315 0 -474 3 -470 10 4 6 172 10 470 10 298 0 466 -4 470 -10z m-1 -99 c3 -5 -1 -12 -10 -15 -20 -8 -898 -8 -918 0 -9 3 -13 10 -10 15 7 12 931 12 938 0z m-1040 -80 c32 -35 -13 -83 -52 -55 -26 18 -27 31 -5 56 21 23 36 23 57 -1z m1031 -17 c48 -19 -48 -24 -467 -24 -411 0 -502 5 -456 23 19 8 904 8 923 1z m81 -260 c99 -47 98 -201 -3 -249 -117 -56 -245 71 -186 185 37 71 117 98 189 64z m-286 -99 c0 -13 -47 -15 -359 -15 -198 0 -362 4 -365 9 -3 4 -3 11 1 15 3 3 168 6 365 6 312 0 358 -2 358 -15z m5 -100 c0 -10 -697 -20 -723 -10 -7 3 -10 9 -7 15 9 14 730 9 730 -5z m210 -95 c4 -7 -155 -10 -470 -10 -315 0 -474 3 -470 10 4 6 172 10 470 10 298 0 466 -4 470 -10z m-11 -96 c9 -3 13 -10 10 -15 -7 -12 -931 -12 -938 0 -3 4 -3 11 1 15 8 8 906 8 927 0z m-1032 -81 c23 -21 23 -36 -3 -59 -15 -13 -24 -16 -36 -8 -32 20 -38 41 -19 63 23 25 34 26 58 4z m1032 -19 c9 -3 13 -10 10 -15 -7 -12 -931 -12 -938 0 -3 4 -3 11 1 14 8 8 906 9 927 1z"/>
<path d="M5748 2901 l-33 -30 22 -22 21 -22 23 22 c12 11 26 21 30 21 11 0 69 -82 69 -97 0 -23 -25 -14 -47 16 -17 22 -28 27 -47 24 -14 -3 -26 -11 -26 -18 0 -8 -7 -21 -16 -30 -22 -22 -11 -43 31 -61 85 -35 165 21 165 116 0 34 -6 48 -34 76 -29 29 -41 34 -80 34 -37 0 -52 -6 -78 -29z"/>
<path d="M5191 2472 c-19 -27 -19 -42 0 -42 8 0 31 61 25 67 -2 2 -13 -9 -25 -25z"/>
<path d="M7396 2260 c-104 -92 3 -254 128 -195 47 23 70 65 63 121 -10 96 -118 138 -191 74z m108 -78 c14 -21 26 -43 26 -50 0 -22 -26 -12 -48 18 -13 17 -28 27 -37 24 -26 -10 -38 6 -19 27 26 29 48 23 78 -19z"/>
<path d="M7424 1530 c-28 -11 -61 -54 -69 -89 -9 -41 18 -97 57 -121 102 -62 212 38 168 154 -19 51 -99 79 -156 56z m79 -97 c15 -20 27 -42 27 -50 0 -23 -28 -14 -49 16 -16 22 -26 27 -46 23 -29 -5 -32 4 -8 30 24 27 45 22 76 -19z"/>
</g>
<g id="layer117" fill="#f2f2f2" stroke="none">
<path d="M0 4000 l0 -4000 6000 0 6000 0 0 4000 0 4000 -6000 0 -6000 0 0 -4000z m6430 -143 c0 -4 -154 -7 -342 -7 -332 1 -342 1 -349 -18 -10 -28 -48 -52 -81 -52 -24 0 -28 -4 -28 -27 0 -14 7 -34 15 -43 21 -24 48 -417 43 -656 l-3 -191 22 32 c28 41 92 68 140 59 48 -9 100 -57 113 -103 17 -66 -17 -142 -75 -167 -51 -21 -97 -17 -138 10 -27 18 -38 22 -45 13 -32 -38 -121 -229 -128 -272 -9 -62 -7 -50 -28 -112 -20 -60 -66 -114 -114 -133 -47 -18 -119 -8 -167 24 -55 37 -225 208 -225 226 0 8 45 67 99 132 91 108 99 120 105 170 4 30 3 65 -2 79 -4 13 -10 60 -11 104 -2 44 -5 83 -7 87 -2 3 -15 58 -28 122 -24 113 -26 118 -135 301 -61 103 -111 195 -111 205 0 11 -11 29 -24 42 -13 13 -31 34 -40 48 l-16 26 75 44 c41 24 72 46 69 49 -2 3 -137 4 -298 2 -225 -2 -296 0 -301 10 -6 9 202 11 1003 8 557 -2 1012 -8 1012 -12z m820 -917 c0 -6 -128 -10 -365 -10 -237 0 -365 4 -365 10 0 6 128 10 365 10 237 0 365 -4 365 -10z m5 -100 c-4 -6 -137 -10 -365 -10 -228 0 -361 4 -365 10 -4 7 120 10 365 10 245 0 369 -3 365 -10z m210 -100 c-4 -6 -172 -10 -470 -10 -298 0 -466 4 -470 10 -4 7 155 10 470 10 315 0 474 -3 470 -10z m0 -100 c-4 -6 -173 -10 -476 -10 -306 0 -469 3 -469 10 0 7 165 10 476 10 314 0 473 -3 469 -10z m-1035 -79 c18 -36 -11 -68 -50 -56 -42 13 -29 75 15 75 14 0 29 -8 35 -19z m1024 -7 c50 -19 -38 -24 -459 -24 -417 0 -509 5 -463 23 18 8 903 8 922 1z m124 -288 c28 -31 32 -43 32 -88 0 -66 -27 -114 -75 -134 -95 -39 -189 13 -202 114 -18 134 152 208 245 108z m-328 -66 c0 -6 -129 -10 -366 -10 -241 0 -363 3 -359 10 4 6 137 10 366 10 233 0 359 -4 359 -10z m-1995 -70 c5 -8 11 -7 21 1 9 7 37 10 74 7 54 -4 64 -8 90 -39 35 -41 46 -89 32 -135 -9 -30 -8 -34 9 -34 23 0 24 -18 4 -47 -43 -61 -224 -75 -281 -23 -59 55 -91 174 -64 244 11 31 40 34 47 6 7 -27 20 -25 27 5 6 25 30 34 41 15z m2000 -35 c0 -10 -697 -20 -723 -10 -7 3 -10 9 -7 15 9 14 730 9 730 -5z m210 -95 c4 -7 -155 -10 -470 -10 -315 0 -474 3 -470 10 4 6 172 10 470 10 298 0 466 -4 470 -10z m-1 -99 c3 -5 -1 -12 -10 -15 -20 -8 -898 -8 -918 0 -9 3 -13 10 -10 15 7 12 931 12 938 0z m-1040 -80 c32 -35 -13 -83 -52 -55 -26 18 -27 31 -5 56 21 23 36 23 57 -1z m1031 -17 c48 -19 -48 -24 -467 -24 -411 0 -502 5 -456 23 19 8 904 8 923 1z m122 -287 c29 -32 33 -44 33 -89 0 -92 -53 -148 -141 -148 -30 0 -52 8 -76 26 -64 49 -80 117 -41 185 29 51 69 71 137 66 47 -3 59 -9 88 -40z m-327 -72 c0 -13 -47 -15 -359 -15 -198 0 -362 4 -365 9 -3 4 -3 11 1 15 3 3 168 6 365 6 312 0 358 -2 358 -15z m5 -100 c0 -10 -697 -20 -723 -10 -7 3 -10 9 -7 15 9 14 730 9 730 -5z m210 -95 c4 -7 -155 -10 -470 -10 -315 0 -474 3 -470 10 4 6 172 10 470 10 298 0 466 -4 470 -10z m-11 -96 c9 -3 13 -10 10 -15 -7 -12 -931 -12 -938 0 -3 4 -3 11 1 15 8 8 906 8 927 0z m-1032 -81 c23 -21 23 -36 -3 -59 -15 -13 -24 -16 -36 -8 -32 20 -38 41 -19 63 23 25 34 26 58 4z m1032 -19 c9 -3 13 -10 10 -15 -7 -12 -931 -12 -938 0 -3 4 -3 11 1 14 8 8 906 9 927 1z"/>
<path d="M5764 2911 c-43 -26 -49 -39 -29 -61 17 -19 18 -19 46 2 l29 22 22 -22 c13 -11 31 -35 41 -51 17 -29 17 -32 1 -38 -12 -5 -24 2 -41 24 -18 23 -29 29 -48 25 -14 -2 -25 -10 -25 -17 0 -8 -8 -21 -17 -31 -16 -16 -15 -18 11 -40 19 -17 39 -24 69 -24 49 0 81 19 102 60 55 106 -60 213 -161 151z"/>
<path d="M5196 2475 c-17 -26 -21 -50 -7 -41 9 6 33 66 27 66 -2 0 -11 -11 -20 -25z"/>
<path d="M7413 2270 c-41 -24 -53 -48 -53 -102 1 -139 208 -149 227 -11 13 98 -89 165 -174 113z m91 -86 c20 -26 33 -50 30 -55 -10 -16 -32 -9 -53 17 -15 19 -26 24 -41 19 -31 -10 -39 24 -11 47 13 10 27 18 32 18 4 0 24 -21 43 -46z"/>
<path d="M7425 1526 c-42 -18 -65 -57 -65 -107 0 -110 129 -154 205 -69 14 16 20 36 20 71 0 41 -5 53 -30 79 -36 36 -87 46 -130 26z m80 -92 c28 -38 33 -50 23 -62 -10 -12 -16 -9 -40 17 -21 23 -34 30 -48 26 -32 -10 -38 24 -9 46 13 10 27 19 31 19 4 0 23 -21 43 -46z"/>
</g>
<g id="layer118" fill="#ffffff" stroke="none">
<path d="M0 4000 l0 -4000 6000 0 6000 0 0 4000 0 4000 -6000 0 -6000 0 0 -4000z m6098 -135 c182 0 332 -4 332 -8 0 -4 -154 -7 -342 -7 -332 1 -342 1 -349 -18 -10 -28 -48 -52 -81 -52 -24 0 -28 -4 -28 -27 0 -14 7 -34 15 -43 21 -24 48 -417 43 -655 l-3 -191 20 30 c24 35 79 66 119 66 49 0 111 -44 130 -91 54 -133 -90 -254 -207 -175 -27 18 -38 22 -45 13 -32 -38 -121 -229 -128 -272 -9 -62 -7 -50 -28 -112 -20 -60 -66 -114 -114 -133 -47 -18 -119 -8 -167 24 -55 37 -225 208 -225 226 0 8 45 67 99 132 91 108 99 120 105 170 4 30 3 65 -2 79 -4 13 -10 60 -11 104 -2 44 -5 83 -7 87 -2 3 -15 58 -28 122 -24 113 -26 118 -135 301 -61 103 -111 195 -111 205 0 11 -11 29 -24 42 -13 13 -31 34 -40 48 l-16 26 75 44 c41 24 71 47 67 51 -4 3 -78 4 -164 1 l-157 -4 50 -47 c36 -33 53 -57 59 -85 24 -109 -92 -175 -162 -92 -16 19 -18 19 -18 3 0 -27 17 -56 68 -112 59 -66 76 -104 68 -148 -8 -41 -41 -72 -92 -86 -80 -22 -181 45 -239 158 -20 39 -31 133 -21 184 3 19 20 54 36 79 31 46 143 134 159 124 5 -3 14 1 21 9 11 13 -1 15 -99 15 -124 0 -154 17 -38 22 39 2 344 1 677 -2 333 -3 755 -5 938 -5z m1425 -819 c53 -22 87 -70 87 -123 0 -113 -114 -180 -207 -123 -68 41 -87 109 -51 179 37 71 102 96 171 67z m-273 -101 c0 -13 -47 -15 -365 -15 -201 0 -365 4 -365 8 0 5 3 12 7 15 3 4 168 7 365 7 312 0 358 -2 358 -15z m8 -102 c3 -10 -75 -13 -367 -13 -204 0 -371 4 -371 8 0 5 3 12 7 15 4 4 169 6 366 5 278 -2 361 -6 365 -15z m210 -100 c3 -10 -96 -13 -472 -13 -262 0 -476 4 -476 8 0 5 3 12 7 15 3 4 216 6 471 5 362 -2 466 -6 470 -15z m0 -100 c3 -10 -96 -13 -472 -13 -262 0 -476 4 -476 8 0 5 3 12 7 15 3 4 216 6 471 5 362 -2 466 -6 470 -15z m-1038 -82 c18 -36 -11 -68 -50 -56 -42 13 -29 75 15 75 14 0 29 -8 35 -19z m1038 -18 c3 -10 -96 -13 -472 -13 -418 0 -476 2 -476 15 0 13 57 15 472 13 366 -2 472 -6 476 -15z m44 -233 c20 -6 50 -26 67 -46 27 -30 31 -42 31 -93 0 -44 -5 -65 -21 -85 -63 -80 -189 -73 -237 13 -49 87 -3 197 88 214 14 2 27 5 30 6 3 0 22 -4 42 -9z m-264 -112 c-4 -10 -85 -13 -363 -13 -278 0 -359 3 -362 13 -4 9 73 12 362 12 289 0 366 -3 363 -12z m-1993 -68 c5 -8 11 -7 21 1 9 7 37 10 74 7 54 -4 64 -8 90 -39 35 -41 46 -89 32 -135 -9 -30 -8 -34 9 -34 23 0 24 -18 4 -47 -43 -61 -224 -75 -281 -23 -59 55 -91 174 -64 244 11 31 40 34 47 6 7 -27 20 -25 27 5 6 25 30 34 41 15z m2005 -35 c0 -13 -48 -15 -370 -15 -322 0 -370 2 -370 15 0 13 48 15 370 15 322 0 370 -2 370 -15z m208 -97 c-4 -10 -107 -13 -473 -13 -366 0 -469 3 -472 13 -4 9 95 12 472 12 377 0 476 -3 473 -12z m0 -100 c-4 -10 -110 -14 -476 -16 -415 -2 -472 0 -472 13 0 13 58 15 476 15 376 0 475 -3 472 -12z m-1044 -77 c32 -35 -13 -83 -52 -55 -26 18 -27 31 -5 56 21 23 36 23 57 -1z m1041 -26 c0 -6 -166 -11 -472 -13 -418 -2 -473 0 -473 13 0 13 55 15 473 13 306 -2 472 -7 472 -13z m68 -244 c13 -5 36 -24 50 -41 23 -27 27 -41 27 -92 0 -58 -2 -63 -40 -100 -36 -34 -46 -38 -92 -38 -63 0 -115 29 -134 76 -37 89 3 176 95 205 27 8 53 5 94 -10z m-283 -106 c0 -13 -47 -15 -365 -15 -318 0 -365 2 -365 15 0 13 47 15 365 15 318 0 365 -2 365 -15z m8 -102 c3 -10 -75 -13 -367 -13 -324 0 -371 2 -371 15 0 13 45 15 367 13 282 -2 367 -6 371 -15z m210 -95 c-4 -10 -107 -13 -473 -13 -366 0 -469 3 -472 13 -4 9 95 12 472 12 377 0 476 -3 473 -12z m0 -105 c3 -10 -96 -13 -472 -13 -418 0 -476 2 -476 15 0 13 57 15 472 13 366 -2 472 -6 476 -15z m-1046 -70 c23 -21 23 -36 -3 -59 -15 -13 -24 -16 -36 -8 -32 20 -38 41 -19 63 23 25 34 26 58 4z m1046 -30 c3 -10 -96 -13 -472 -13 -418 0 -476 2 -476 15 0 13 57 15 472 13 366 -2 472 -6 476 -15z"/>
<path d="M5060 3827 c0 -39 -15 -64 -51 -83 l-31 -16 26 -27 c19 -20 34 -26 54 -24 25 4 33 -5 102 -118 137 -223 159 -263 227 -411 63 -140 83 -171 83 -130 0 9 7 76 15 147 8 72 19 177 24 235 19 195 32 285 43 318 10 25 10 37 0 52 -7 11 -12 34 -12 52 l0 33 -240 0 -240 0 0 -28z"/>
<path d="M4644 3815 c-3 -8 -4 -20 -2 -27 3 -7 7 -1 10 15 6 29 1 36 -8 12z"/>
<path d="M4516 3715 c-3 -8 -1 -15 4 -15 6 0 10 7 10 15 0 8 -2 15 -4 15 -2 0 -6 -7 -10 -15z"/>
<path d="M4675 3701 c-6 -11 13 -26 22 -17 4 3 1 6 -6 6 -7 0 -9 5 -6 10 3 6 4 10 1 10 -3 0 -7 -4 -11 -9z"/>
<path d="M4705 3660 c3 -5 16 -15 28 -21 22 -12 22 -12 3 10 -19 21 -43 30 -31 11z"/>
<path d="M4585 3420 c3 -5 8 -10 11 -10 3 0 2 5 -1 10 -3 6 -8 10 -11 10 -3 0 -2 -4 1 -10z"/>
<path d="M4657 3366 c10 -13 27 -30 38 -36 11 -7 4 4 -14 24 -40 42 -50 47 -24 12z"/>
<path d="M5775 2917 c-17 -8 -36 -21 -44 -31 -12 -14 -11 -19 4 -36 18 -20 18 -20 40 0 12 11 28 20 36 20 18 -1 83 -86 74 -100 -11 -18 -33 -11 -58 20 -16 18 -28 26 -32 19 -4 -6 -13 -8 -21 -5 -8 3 -14 -1 -14 -9 0 -7 -8 -21 -17 -31 -16 -16 -15 -18 11 -40 50 -43 140 -24 171 36 24 47 19 86 -17 125 -38 41 -87 53 -133 32z"/>
<path d="M5190 2461 c-12 -24 -13 -34 -1 -27 9 6 22 46 15 46 -2 0 -8 -9 -14 -19z"/>
<path d="M7420 3022 c-21 -10 -42 -32 -53 -54 -52 -107 67 -211 171 -148 76 46 67 172 -13 206 -45 18 -63 18 -105 -4z m79 -89 c17 -21 31 -43 31 -50 0 -23 -28 -14 -50 17 -17 24 -25 28 -40 20 -27 -14 -36 6 -14 31 25 27 38 24 73 -18z"/>
<path d="M7425 2276 c-42 -18 -65 -57 -65 -107 0 -33 6 -47 34 -75 29 -29 41 -34 79 -34 51 0 88 24 107 69 38 93 -63 189 -155 147z m81 -91 c31 -38 34 -47 24 -60 -12 -14 -17 -12 -45 15 -21 20 -37 28 -48 24 -28 -10 -34 26 -8 48 13 10 27 18 31 18 5 0 25 -20 46 -45z"/>
<path d="M7422 1524 c-77 -39 -84 -155 -12 -197 73 -44 166 -2 176 78 11 91 -83 159 -164 119z m83 -89 c22 -26 35 -51 31 -60 -8 -22 -23 -18 -53 15 -18 21 -32 28 -45 24 -29 -9 -36 26 -9 48 13 10 27 18 31 18 5 0 25 -20 45 -45z"/>
</g>


</svg>