<!DOCTYPE svg PUBLIC "-//W3C//DTD SVG 20010904//EN" "http://www.w3.org/TR/2001/REC-SVG-20010904/DTD/svg10.dtd">
<svg version="1.0" xmlns="http://www.w3.org/2000/svg" width="400px" height="400px" viewBox="0 0 4000 4000" preserveAspectRatio="xMidYMid meet">
<g id="layer101" fill="#2f2e41" stroke="none">
<path d="M0 2000 l0 -2000 2000 0 2000 0 0 2000 0 2000 -2000 0 -2000 0 0 -2000z"/>
</g>
<g id="layer102" fill="#db3545" stroke="none">
<path d="M0 2000 l0 -2000 2000 0 2000 0 0 2000 0 2000 -2000 0 -2000 0 0 -2000z m1535 58 c-5 -26 -43 -59 -64 -55 -28 4 -21 24 14 43 19 10 35 22 35 26 0 5 4 8 9 8 6 0 8 -10 6 -22z m168 15 c-23 -2 -64 -2 -90 0 -26 2 -7 3 42 3 50 0 71 -1 48 -3z m167 -13 c-8 -15 -21 -20 -49 -20 -30 0 -40 4 -44 20 -5 18 0 20 49 20 52 0 54 -1 44 -20z m268 13 c-42 -2 -114 -2 -160 0 -46 1 -11 3 77 3 88 0 125 -2 83 -3z m-304 -105 c3 -18 8 -96 11 -173 7 -164 -1 -213 -51 -302 l-35 -63 -52 26 c-29 15 -55 32 -59 38 -4 6 -10 36 -13 66 -17 154 -57 271 -121 350 -6 8 -15 25 -18 36 -5 18 -1 24 23 32 29 10 30 10 88 -86 32 -53 71 -126 87 -162 47 -106 46 -107 66 85 19 188 18 185 45 185 19 0 25 -6 29 -32z m-114 -799 c0 -37 4 -49 15 -49 8 0 15 -4 15 -10 0 -33 -116 -42 -145 -10 -22 24 -38 101 -23 115 7 7 12 6 15 -3 3 -8 9 -10 16 -3 15 11 55 18 85 13 19 -4 22 -10 22 -53z"/>
</g>
<g id="layer103" fill="#a0616a" stroke="none">
<path d="M0 2000 l0 -2000 2000 0 2000 0 0 2000 0 2000 -2000 0 -2000 0 0 -2000z m1535 58 c-5 -26 -43 -59 -64 -55 -28 4 -21 24 14 43 19 10 35 22 35 26 0 5 4 8 9 8 6 0 8 -10 6 -22z m168 15 c-23 -2 -64 -2 -90 0 -26 2 -7 3 42 3 50 0 71 -1 48 -3z m167 -13 c-8 -15 -21 -20 -49 -20 -30 0 -40 4 -44 20 -5 18 0 20 49 20 52 0 54 -1 44 -20z m268 13 c-42 -2 -114 -2 -160 0 -46 1 -11 3 77 3 88 0 125 -2 83 -3z m-303 -105 c3 -18 7 -109 8 -203 2 -191 7 -172 -97 -363 -51 -92 -57 -122 -26 -122 13 0 27 14 40 40 26 51 35 52 15 3 -21 -50 -35 -63 -76 -69 -28 -5 -41 -1 -64 19 -35 30 -37 69 -5 142 23 54 22 70 -17 275 -15 77 -54 164 -99 220 -6 8 -15 25 -18 36 -5 18 -1 24 23 32 29 10 30 10 88 -86 32 -53 71 -126 87 -162 47 -106 46 -107 66 85 19 188 18 185 45 185 19 0 25 -6 30 -32z m-115 -799 c0 -37 4 -49 15 -49 8 0 15 -4 15 -10 0 -33 -116 -42 -145 -10 -22 24 -38 101 -23 115 7 7 12 6 15 -3 3 -8 9 -10 16 -3 15 11 55 18 85 13 19 -4 22 -10 22 -53z"/>
</g>
<g id="layer104" fill="#d34855" stroke="none">
<path d="M0 2000 l0 -2000 2000 0 2000 0 0 2000 0 2000 -2000 0 -2000 0 0 -2000z m1535 58 c-3 -13 -12 -28 -21 -35 -14 -10 -15 -15 -4 -28 7 -9 19 -14 26 -11 14 5 110 -149 160 -257 17 -37 34 -70 37 -73 7 -8 14 33 28 176 6 63 15 131 20 151 5 21 5 48 0 67 l-10 32 55 0 c52 0 54 -1 44 -20 -6 -12 -21 -20 -35 -20 -29 0 -29 2 -10 -44 11 -27 16 -83 18 -226 1 -146 5 -190 15 -190 20 0 26 -29 9 -48 -21 -24 -101 -185 -87 -177 12 8 -14 -60 -31 -81 -6 -8 -26 -16 -45 -20 -27 -5 -42 -1 -68 17 -21 14 -32 28 -28 38 3 8 1 12 -5 8 -5 -3 -24 9 -42 27 l-32 33 52 64 c50 59 53 66 51 114 -4 111 -33 216 -84 298 -26 43 -51 89 -54 102 -3 13 -14 31 -25 41 -26 23 -24 28 16 50 19 10 35 22 35 26 0 5 4 8 9 8 6 0 8 -10 6 -22z m168 15 c-23 -2 -64 -2 -90 0 -26 2 -7 3 42 3 50 0 71 -1 48 -3z m435 0 c-42 -2 -114 -2 -160 0 -46 1 -11 3 77 3 88 0 125 -2 83 -3z m-437 -851 c20 -2 44 -55 35 -79 -4 -9 -1 -20 6 -25 23 -15 -22 -38 -72 -38 -56 0 -77 19 -91 81 -11 46 3 78 21 49 8 -13 10 -13 15 1 5 13 31 17 86 11z"/>
<path d="M1640 1460 c0 -7 3 -10 7 -7 3 4 3 10 0 14 -4 3 -7 0 -7 -7z"/>
<path d="M1606 1406 c-12 -22 -15 -39 -10 -49 7 -12 13 -3 26 34 19 57 11 64 -16 15z"/>
<path d="M1734 1288 c-4 -7 -3 -8 4 -4 12 7 16 16 8 16 -3 0 -8 -5 -12 -12z"/>
</g>
<g id="layer105" fill="#aaa8af" stroke="none">
<path d="M0 2000 l0 -2000 2000 0 2000 0 0 2000 0 2000 -2000 0 -2000 0 0 -2000z m1535 58 c-3 -13 -12 -28 -21 -35 -14 -10 -15 -15 -4 -28 7 -9 19 -14 26 -11 14 5 110 -149 160 -257 17 -37 34 -70 37 -73 7 -8 14 33 28 176 6 63 15 131 20 151 5 21 5 48 0 67 l-10 32 55 0 c52 0 54 -1 44 -20 -6 -12 -21 -20 -35 -20 -29 0 -29 2 -10 -44 11 -27 16 -83 18 -226 1 -146 5 -190 15 -190 20 0 26 -29 9 -48 -27 -30 -74 -136 -82 -181 -9 -55 -51 -101 -91 -101 -33 0 -76 29 -127 86 l-38 42 53 63 c49 59 52 66 50 114 -4 111 -33 216 -84 298 -26 43 -51 89 -54 102 -3 13 -14 31 -25 41 -26 23 -24 28 16 50 19 10 35 22 35 26 0 5 4 8 9 8 6 0 8 -10 6 -22z m168 15 c-23 -2 -64 -2 -90 0 -26 2 -7 3 42 3 50 0 71 -1 48 -3z m435 0 c-42 -2 -114 -2 -160 0 -46 1 -11 3 77 3 88 0 125 -2 83 -3z m-209 -515 c13 -22 13 -23 -6 -5 -11 9 -23 14 -28 10 -4 -5 -5 -2 -1 5 10 18 19 15 35 -10z m812 -315 c13 -17 13 -17 -6 -3 -11 8 -22 16 -24 17 -2 2 0 3 6 3 6 0 17 -8 24 -17z m-1040 -21 c20 -2 44 -55 35 -79 -4 -9 -1 -20 6 -25 23 -15 -22 -38 -72 -38 -56 0 -77 19 -91 81 -11 46 3 78 21 49 8 -13 10 -13 15 1 5 13 31 17 86 11z m1039 -347 c19 -22 8 -25 -12 -3 -10 10 -14 18 -9 18 5 0 14 -7 21 -15z"/>
</g>
<g id="layer106" fill="#bebdc2" stroke="none">
<path d="M0 2000 l0 -2000 2000 0 2000 0 0 2000 0 2000 -2000 0 -2000 0 0 -2000z m1383 73 c-29 -2 -77 -2 -105 0 -29 2 -6 3 52 3 58 0 81 -1 53 -3z m157 -10 c0 -9 -7 -24 -16 -34 -19 -21 -12 -51 9 -43 17 6 120 -155 168 -264 18 -40 34 -71 36 -69 2 2 10 75 19 163 8 87 19 169 24 181 5 13 5 35 0 52 l-9 31 56 0 c68 0 68 -23 1 -44 -16 -5 -16 -8 -2 -41 10 -26 17 -91 21 -223 5 -154 9 -189 22 -199 13 -10 14 -15 4 -30 -34 -49 -81 -153 -88 -192 -9 -55 -51 -101 -91 -101 -33 0 -76 29 -127 86 l-38 42 51 61 c58 70 60 87 34 235 -15 87 -27 116 -92 222 -18 28 -32 58 -32 65 0 8 -9 23 -21 32 -25 22 -23 30 21 61 42 29 50 31 50 9z m163 10 c-23 -2 -64 -2 -90 0 -26 2 -7 3 42 3 50 0 71 -1 48 -3z m435 0 c-42 -2 -114 -2 -160 0 -46 1 -11 3 77 3 88 0 125 -2 83 -3z m-209 -515 c13 -22 13 -23 -6 -5 -11 9 -23 14 -28 10 -4 -5 -5 -2 -1 5 10 18 19 15 35 -10z m684 -35 c-62 -2 -165 -2 -230 0 -65 1 -14 3 112 3 127 0 180 -2 118 -3z m0 -50 c-62 -2 -165 -2 -230 0 -65 1 -14 3 112 3 127 0 180 -2 118 -3z m-85 -220 c-49 -2 -127 -2 -175 0 -49 1 -9 3 87 3 96 0 136 -2 88 -3z m213 -10 c13 -17 13 -17 -6 -3 -11 8 -22 16 -24 17 -2 2 0 3 6 3 6 0 17 -8 24 -17z m-1129 -31 c4 10 21 15 51 16 53 2 70 -13 71 -64 1 -19 4 -34 9 -34 13 0 8 -27 -8 -40 -8 -7 -36 -14 -61 -15 -37 -3 -51 1 -69 19 -28 28 -42 100 -24 122 12 14 14 14 19 -2 5 -15 7 -15 12 -2z m916 -9 c-49 -2 -127 -2 -175 0 -49 1 -9 3 87 3 96 0 136 -2 88 -3z m0 -320 c-49 -2 -127 -2 -175 0 -49 1 -9 3 87 3 96 0 136 -2 88 -3z m212 -8 c19 -22 8 -25 -12 -3 -10 10 -14 18 -9 18 5 0 14 -7 21 -15z m-212 -42 c-49 -2 -127 -2 -175 0 -49 1 -9 3 87 3 96 0 136 -2 88 -3z"/>
</g>
<g id="layer107" fill="#e6acb1" stroke="none">
<path d="M0 2000 l0 -2000 2000 0 2000 0 0 2000 0 2000 -2000 0 -2000 0 0 -2000z m1383 73 c-29 -2 -78 -2 -110 0 -32 2 -8 3 52 3 61 0 87 -1 58 -3z m157 -10 c0 -9 -7 -24 -16 -34 -17 -19 -12 -39 11 -39 17 0 124 -173 166 -268 18 -40 34 -71 36 -69 2 2 10 75 19 163 8 87 19 169 24 181 5 13 5 35 0 52 l-9 31 56 0 c68 0 68 -23 1 -44 -16 -5 -16 -8 -2 -41 10 -26 17 -91 21 -223 5 -154 9 -189 22 -199 13 -10 14 -15 4 -30 -34 -49 -81 -153 -88 -192 -9 -56 -51 -101 -93 -101 -32 0 -65 22 -122 84 -44 46 -43 51 20 118 47 50 50 78 24 222 -15 87 -27 116 -93 224 -18 28 -34 58 -35 66 -1 7 -9 21 -19 30 -24 24 -22 30 21 59 44 31 52 32 52 10z m163 10 c-23 -2 -64 -2 -90 0 -26 2 -7 3 42 3 50 0 71 -1 48 -3z m435 0 c-42 -2 -114 -2 -160 0 -46 1 -11 3 77 3 88 0 125 -2 83 -3z m395 -450 c-51 -2 -135 -2 -185 0 -51 1 -10 3 92 3 102 0 143 -2 93 -3z m-604 -65 c13 -22 13 -23 -6 -5 -11 9 -23 14 -28 10 -4 -5 -5 -2 -1 5 10 18 19 15 35 -10z m604 15 c-51 -2 -135 -2 -185 0 -51 1 -10 3 92 3 102 0 143 -2 93 -3z m75 -50 c-65 -2 -171 -2 -235 0 -65 1 -12 3 117 3 129 0 182 -2 118 -3z m0 -50 c-65 -2 -171 -2 -235 0 -65 1 -12 3 117 3 129 0 182 -2 118 -3z m-394 -54 c-8 -14 -34 -11 -34 4 0 8 3 17 7 20 9 9 34 -13 27 -24z m394 4 c-65 -2 -171 -2 -235 0 -65 1 -12 3 117 3 129 0 182 -2 118 -3z m-75 -170 c-51 -2 -135 -2 -185 0 -51 1 -10 3 92 3 102 0 143 -2 93 -3z m208 -10 c13 -17 13 -17 -6 -3 -11 8 -22 16 -24 17 -2 2 0 3 6 3 6 0 17 -8 24 -17z m-1129 -31 c4 10 21 15 51 16 53 2 70 -13 71 -64 1 -19 4 -34 9 -34 16 0 6 -31 -16 -45 -23 -15 -92 -15 -117 0 -16 10 -40 68 -40 98 0 31 22 54 31 31 5 -15 6 -15 11 -2z m921 -9 c-51 -2 -135 -2 -185 0 -51 1 -10 3 92 3 102 0 143 -2 93 -3z m75 -50 c-65 -2 -171 -2 -235 0 -65 1 -12 3 117 3 129 0 182 -2 118 -3z m0 -50 c-65 -2 -171 -2 -235 0 -65 1 -12 3 117 3 129 0 182 -2 118 -3z m-393 -44 c0 -7 -8 -15 -17 -17 -18 -3 -25 18 -11 32 10 10 28 1 28 -15z m393 -6 c-65 -2 -171 -2 -235 0 -65 1 -12 3 117 3 129 0 182 -2 118 -3z m-75 -170 c-51 -2 -135 -2 -185 0 -51 1 -10 3 92 3 102 0 143 -2 93 -3z m207 -8 c19 -22 8 -25 -12 -3 -10 10 -14 18 -9 18 5 0 14 -7 21 -15z m-207 -42 c-51 -2 -135 -2 -185 0 -51 1 -10 3 92 3 102 0 143 -2 93 -3z m75 -50 c-65 -2 -171 -2 -235 0 -65 1 -12 3 117 3 129 0 182 -2 118 -3z m0 -50 c-65 -2 -171 -2 -235 0 -65 1 -12 3 117 3 129 0 182 -2 118 -3z m-393 -44 c0 -7 -8 -15 -17 -17 -18 -3 -25 18 -11 32 10 10 28 1 28 -15z m393 -6 c-65 -2 -171 -2 -235 0 -65 1 -12 3 117 3 129 0 182 -2 118 -3z"/>
<path d="M1608 1409 c-20 -34 -23 -49 -10 -49 5 0 16 18 25 40 18 47 9 53 -15 9z"/>
</g>
<g id="layer108" fill="#f2f2f2" stroke="none">
<path d="M0 2000 l0 -2000 2000 0 2000 0 0 2000 0 2000 -2000 0 -2000 0 0 -2000z m1383 73 c-29 -2 -78 -2 -110 0 -32 2 -8 3 52 3 61 0 87 -1 58 -3z m157 -10 c0 -9 -7 -24 -16 -34 -17 -19 -12 -39 11 -39 17 0 124 -173 166 -268 18 -40 34 -71 35 -69 7 7 45 393 40 410 -3 15 3 17 50 17 30 0 54 -4 54 -8 0 -14 -24 -32 -43 -32 -16 0 -18 -5 -13 -27 14 -56 25 -191 25 -305 1 -105 3 -118 20 -128 14 -7 22 -7 26 1 9 13 45 -18 45 -39 0 -13 -3 -13 -18 1 -24 22 -39 21 -45 -2 -10 -39 40 -55 75 -24 22 20 23 61 1 85 -20 22 -51 23 -75 1 -10 -9 -18 -11 -18 -5 0 14 33 32 59 32 58 0 84 -94 36 -126 -23 -15 -49 -15 -85 0 -18 8 -80 -100 -80 -139 0 -72 -57 -129 -117 -117 -27 5 -143 107 -143 126 0 7 23 38 50 71 58 68 60 83 34 229 -15 88 -25 111 -98 231 -20 33 -36 64 -36 68 0 5 -7 15 -15 23 -22 22 -19 28 23 57 44 31 52 32 52 10z m163 10 c-23 -2 -64 -2 -90 0 -26 2 -7 3 42 3 50 0 71 -1 48 -3z m435 0 c-42 -2 -114 -2 -160 0 -46 1 -11 3 77 3 88 0 125 -2 83 -3z m395 -450 c-51 -2 -135 -2 -185 0 -51 1 -10 3 92 3 102 0 143 -2 93 -3z m0 -50 c-51 -2 -135 -2 -185 0 -51 1 -10 3 92 3 102 0 143 -2 93 -3z m75 -50 c-65 -2 -171 -2 -235 0 -65 1 -12 3 117 3 129 0 182 -2 118 -3z m0 -50 c-65 -2 -171 -2 -235 0 -65 1 -12 3 117 3 129 0 182 -2 118 -3z m-394 -54 c-8 -14 -34 -11 -34 4 0 8 3 17 7 20 9 9 34 -13 27 -24z m394 4 c-65 -2 -171 -2 -235 0 -65 1 -12 3 117 3 129 0 182 -2 118 -3z m166 -129 c38 -37 27 -96 -20 -114 -67 -26 -125 59 -74 110 24 24 72 26 94 4z m-241 -41 c-51 -2 -135 -2 -185 0 -51 1 -10 3 92 3 102 0 143 -2 93 -3z m-921 -41 c4 10 21 15 52 16 53 2 70 -15 80 -85 5 -37 3 -44 -17 -58 -23 -15 -92 -15 -117 0 -16 10 -40 68 -40 98 0 31 22 54 31 31 5 -15 6 -15 11 -2z m921 -9 c-51 -2 -135 -2 -185 0 -51 1 -10 3 92 3 102 0 143 -2 93 -3z m75 -50 c-65 -2 -171 -2 -235 0 -65 1 -12 3 117 3 129 0 182 -2 118 -3z m0 -50 c-65 -2 -171 -2 -235 0 -65 1 -12 3 117 3 129 0 182 -2 118 -3z m-393 -44 c0 -7 -8 -15 -17 -17 -18 -3 -25 18 -11 32 10 10 28 1 28 -15z m393 -6 c-65 -2 -171 -2 -235 0 -65 1 -12 3 117 3 129 0 182 -2 118 -3z m171 -139 c26 -33 26 -55 3 -85 -39 -47 -122 -16 -122 47 0 60 81 86 119 38z m-246 -31 c-51 -2 -135 -2 -185 0 -51 1 -10 3 92 3 102 0 143 -2 93 -3z m0 -50 c-51 -2 -135 -2 -185 0 -51 1 -10 3 92 3 102 0 143 -2 93 -3z m75 -50 c-65 -2 -171 -2 -235 0 -65 1 -12 3 117 3 129 0 182 -2 118 -3z m0 -50 c-65 -2 -171 -2 -235 0 -65 1 -12 3 117 3 129 0 182 -2 118 -3z m-393 -44 c0 -7 -8 -15 -17 -17 -18 -3 -25 18 -11 32 10 10 28 1 28 -15z m393 -6 c-65 -2 -171 -2 -235 0 -65 1 -12 3 117 3 129 0 182 -2 118 -3z"/>
<path d="M1600 1390 c-6 -11 -7 -20 -2 -20 6 0 12 9 15 20 3 11 3 20 1 20 -2 0 -8 -9 -14 -20z"/>
<path d="M2687 1282 c-10 -10 -17 -28 -17 -40 0 -55 81 -71 109 -21 13 24 13 29 -2 53 -21 31 -66 35 -90 8z m57 -34 c20 -28 14 -33 -16 -16 -12 7 -25 14 -27 15 -6 3 10 23 19 23 5 0 16 -10 24 -22z"/>
<path d="M2687 912 c-45 -50 13 -124 69 -88 31 21 39 52 20 81 -20 30 -65 33 -89 7z m57 -34 c20 -28 14 -33 -16 -16 -12 7 -25 14 -27 15 -6 3 10 23 19 23 5 0 16 -10 24 -22z"/>
</g>
<g id="layer109" fill="#ffffff" stroke="none">
<path d="M0 2000 l0 -2000 2000 0 2000 0 0 2000 0 2000 -2000 0 -2000 0 0 -2000z m1397 73 l-39 -4 26 -24 c34 -32 35 -77 2 -94 -18 -10 -29 -10 -45 -2 -28 16 -27 11 14 -40 39 -49 43 -73 18 -101 -55 -61 -175 43 -160 139 7 41 58 100 97 111 19 5 12 8 -35 13 -45 4 -33 6 50 6 61 0 93 -2 72 -4z m143 -10 c0 -9 -7 -24 -16 -34 -17 -19 -12 -39 11 -39 17 0 124 -173 166 -268 18 -40 34 -71 35 -69 7 7 45 393 40 410 -3 15 3 17 50 17 30 0 54 -4 54 -8 0 -14 -24 -32 -43 -32 -16 0 -18 -5 -13 -27 14 -56 25 -191 25 -302 1 -110 2 -113 19 -98 29 26 77 22 101 -9 26 -34 26 -54 0 -88 -22 -28 -75 -36 -97 -14 -14 14 -12 16 -47 -47 -15 -27 -30 -66 -32 -85 -12 -87 -58 -134 -120 -122 -27 5 -143 107 -143 126 0 7 23 38 50 71 42 50 50 66 50 100 0 71 -31 217 -54 259 -60 105 -119 202 -130 209 -7 6 -8 10 0 13 5 2 26 15 45 29 41 29 49 30 49 8z m163 10 c-23 -2 -64 -2 -90 0 -26 2 -7 3 42 3 50 0 71 -1 48 -3z m435 0 c-42 -2 -114 -2 -160 0 -46 1 -11 3 77 3 88 0 125 -2 83 -3z m641 -419 c12 -15 21 -35 21 -46 0 -24 -44 -68 -68 -68 -33 0 -72 38 -72 71 0 65 80 93 119 43z m-246 -31 c-51 -2 -135 -2 -185 0 -51 1 -10 3 92 3 102 0 143 -2 93 -3z m0 -50 c-51 -2 -135 -2 -185 0 -51 1 -10 3 92 3 102 0 143 -2 93 -3z m85 -50 c-64 -2 -172 -2 -240 0 -68 1 -15 3 117 3 132 0 187 -2 123 -3z m0 -50 c-64 -2 -172 -2 -240 0 -68 1 -15 3 117 3 132 0 187 -2 123 -3z m-404 -54 c-8 -14 -34 -11 -34 4 0 8 3 17 7 20 9 9 34 -13 27 -24z m511 11 c4 -7 -75 -10 -230 -10 -155 0 -234 3 -230 10 4 6 92 10 230 10 138 0 226 -4 230 -10z m58 -142 c9 -11 17 -31 17 -45 0 -27 -41 -73 -65 -73 -9 0 -13 -4 -10 -10 4 -7 -75 -10 -229 -10 -151 0 -236 4 -236 10 0 6 81 10 222 10 l222 0 -22 20 c-52 49 -5 140 63 123 11 -2 28 -14 38 -25z m-250 -35 c-51 -2 -135 -2 -185 0 -51 1 -10 3 92 3 102 0 143 -2 93 -3z m-921 -41 c4 10 21 15 51 16 38 2 49 -2 66 -23 28 -36 26 -101 -3 -120 -22 -15 -92 -15 -116 0 -16 10 -40 68 -40 98 0 31 22 54 31 31 5 -15 6 -15 11 -2z m921 -9 c-51 -2 -135 -2 -185 0 -51 1 -10 3 92 3 102 0 143 -2 93 -3z m192 -93 c4 -7 -75 -10 -229 -10 -151 0 -236 4 -236 10 0 6 83 10 229 10 143 0 232 -4 236 -10z m-510 -51 c0 -7 -8 -15 -17 -17 -18 -3 -25 18 -11 32 10 10 28 1 28 -15z m510 1 c4 -7 -75 -10 -229 -10 -151 0 -236 4 -236 10 0 6 83 10 229 10 143 0 232 -4 236 -10z m60 -143 c23 -33 19 -73 -11 -96 -15 -12 -33 -21 -41 -21 -8 0 -11 -4 -8 -10 4 -7 -75 -10 -229 -10 -151 0 -236 4 -236 10 0 6 81 10 222 10 l222 0 -22 20 c-40 37 -24 106 28 122 25 8 60 -4 75 -25z m-252 -34 c-51 -2 -135 -2 -185 0 -51 1 -10 3 92 3 102 0 143 -2 93 -3z m0 -50 c-51 -2 -135 -2 -185 0 -51 1 -10 3 92 3 102 0 143 -2 93 -3z m192 -93 c4 -7 -75 -10 -229 -10 -151 0 -236 4 -236 10 0 6 83 10 229 10 143 0 232 -4 236 -10z m-510 -51 c0 -7 -8 -15 -17 -17 -18 -3 -25 18 -11 32 10 10 28 1 28 -15z m510 1 c4 -7 -75 -10 -229 -10 -151 0 -236 4 -236 10 0 6 83 10 229 10 143 0 232 -4 236 -10z"/>
<path d="M1894 1609 c-12 -4 -25 -13 -30 -20 -5 -9 1 -11 24 -6 25 5 33 2 47 -19 19 -30 13 -43 -11 -23 -24 20 -42 19 -47 -3 -10 -38 63 -43 87 -5 14 22 -3 68 -29 77 -11 4 -30 4 -41 -1z"/>
<path d="M1596 1383 c-6 -14 -5 -15 5 -6 7 7 10 15 7 18 -3 3 -9 -2 -12 -12z"/>
<path d="M2687 1652 c-23 -25 -21 -58 3 -82 25 -25 41 -25 74 1 31 24 33 52 6 79 -25 25 -62 26 -83 2z m57 -34 c20 -28 14 -33 -16 -16 -12 7 -25 14 -27 15 -6 3 10 23 19 23 5 0 16 -10 24 -22z"/>
<path d="M2690 1280 c-24 -24 -25 -38 -4 -68 17 -24 62 -30 82 -10 17 17 15 64 -4 82 -21 22 -50 20 -74 -4z m58 -31 c10 -15 10 -25 3 -32 -7 -7 -12 -5 -17 6 -3 9 -12 17 -20 17 -15 0 -19 12 -7 23 12 13 28 7 41 -14z"/>
<path d="M2690 910 c-24 -24 -25 -38 -4 -68 17 -24 62 -30 82 -10 17 17 15 64 -4 82 -21 22 -50 20 -74 -4z m52 -27 c20 -18 24 -43 8 -43 -6 0 -13 7 -16 15 -4 8 -12 15 -20 15 -15 0 -19 12 -7 23 9 10 15 9 35 -10z"/>
</g>


</svg>